G75*
G70*
%OFA0B0*%
%FSLAX24Y24*%
%IPPOS*%
%LPD*%
%AMOC8*
5,1,8,0,0,1.08239X$1,22.5*
%
%ADD10R,0.0354X0.0275*%
%ADD11R,0.0275X0.0354*%
%ADD12R,0.0393X0.0590*%
%ADD13R,0.0354X0.0590*%
%ADD14R,0.0591X0.0866*%
%ADD15R,0.0826X0.0511*%
%ADD16R,0.0551X0.0315*%
%ADD17R,0.0866X0.0709*%
%ADD18R,0.0275X0.0275*%
D10*
X004860Y004652D03*
X005460Y004652D03*
X006010Y004652D03*
X006010Y005222D03*
X005460Y005222D03*
X004860Y005222D03*
X005160Y006302D03*
X005160Y006872D03*
X005760Y007802D03*
X006310Y007802D03*
X006310Y008372D03*
X005760Y008372D03*
X008460Y006722D03*
X008460Y006152D03*
X009660Y005672D03*
X009660Y005102D03*
X006610Y005222D03*
X006610Y004652D03*
X015435Y011377D03*
X015435Y011947D03*
X016285Y011947D03*
X016285Y011377D03*
X017060Y011322D03*
X017060Y010752D03*
D11*
X018225Y010037D03*
X018794Y010037D03*
X019600Y010237D03*
X020169Y010237D03*
X015944Y010087D03*
X015375Y010087D03*
X011144Y008637D03*
X010575Y008637D03*
X010394Y007837D03*
X009825Y007837D03*
X009825Y007287D03*
X010394Y007287D03*
X010394Y006737D03*
X009825Y006737D03*
X010675Y006087D03*
X011244Y006087D03*
X011244Y005537D03*
X010675Y005537D03*
X010675Y004937D03*
X011244Y004937D03*
X014300Y004612D03*
X014869Y004612D03*
X017075Y004512D03*
X017644Y004512D03*
X020175Y006437D03*
X020744Y006437D03*
X020744Y006987D03*
X020175Y006987D03*
X009194Y010137D03*
X008625Y010137D03*
X007094Y010437D03*
X006525Y010437D03*
X007325Y006737D03*
X007894Y006737D03*
X007894Y006137D03*
X007325Y006137D03*
X007325Y005537D03*
X007894Y005537D03*
D12*
X012575Y009237D03*
X013244Y009237D03*
X015375Y009237D03*
X016044Y009237D03*
X018175Y009237D03*
X018844Y009237D03*
D13*
X019407Y009227D03*
X017612Y009227D03*
X016607Y009227D03*
X014812Y009227D03*
X013807Y009227D03*
X012012Y009227D03*
D14*
X012221Y006983D03*
X012910Y006983D03*
X013599Y006983D03*
X013599Y006038D03*
X012910Y006038D03*
X012221Y006038D03*
X015021Y006038D03*
X015710Y006038D03*
X016399Y006038D03*
X016399Y006983D03*
X015710Y006983D03*
X015021Y006983D03*
X017821Y006983D03*
X018510Y006983D03*
X019199Y006983D03*
X019199Y006038D03*
X018510Y006038D03*
X017821Y006038D03*
D15*
X013440Y011487D03*
X012180Y011487D03*
D16*
X017780Y011928D03*
X017780Y010746D03*
D17*
X018993Y011337D03*
D18*
X007905Y007837D03*
X007905Y007287D03*
X007315Y007287D03*
X007315Y007837D03*
M02*
