G75*
G70*
%OFA0B0*%
%FSLAX24Y24*%
%IPPOS*%
%LPD*%
%AMOC8*
5,1,8,0,0,1.08239X$1,22.5*
%
%ADD10R,0.0180X0.0460*%
%ADD11R,0.0460X0.0180*%
%ADD12R,0.0393X0.0590*%
%ADD13R,0.0354X0.0275*%
%ADD14R,0.0275X0.0354*%
%ADD15R,0.0354X0.0590*%
%ADD16R,0.0591X0.0866*%
%ADD17R,0.0216X0.0196*%
D10*
X016335Y006447D03*
X016650Y006447D03*
X016965Y006447D03*
X017280Y006447D03*
X017594Y006447D03*
X017909Y006447D03*
X018224Y006447D03*
X018539Y006447D03*
X018539Y009827D03*
X018224Y009827D03*
X017909Y009827D03*
X017594Y009827D03*
X017280Y009827D03*
X016965Y009827D03*
X016650Y009827D03*
X016335Y009827D03*
D11*
X015747Y009239D03*
X015747Y008924D03*
X015747Y008609D03*
X015747Y008294D03*
X015747Y007980D03*
X015747Y007665D03*
X015747Y007350D03*
X015747Y007035D03*
X019127Y007035D03*
X019127Y007350D03*
X019127Y007665D03*
X019127Y007980D03*
X019127Y008294D03*
X019127Y008609D03*
X019127Y008924D03*
X019127Y009239D03*
D12*
X012822Y009237D03*
X012152Y009237D03*
X010022Y009237D03*
X009352Y009237D03*
X007222Y009237D03*
X006552Y009237D03*
D13*
X007837Y009852D03*
X007837Y010422D03*
X008887Y011052D03*
X008887Y011622D03*
X010387Y010422D03*
X010387Y009852D03*
X011687Y011002D03*
X011687Y011572D03*
X011137Y011352D03*
X011137Y011922D03*
X013487Y010372D03*
X013487Y009802D03*
X014437Y007722D03*
X015037Y007722D03*
X015037Y007152D03*
X014437Y007152D03*
X018387Y005372D03*
X018387Y004802D03*
X019137Y004802D03*
X019137Y005372D03*
X019837Y005372D03*
X019837Y004802D03*
X019887Y006502D03*
X019887Y007072D03*
X006337Y010352D03*
X005837Y010352D03*
X005837Y010922D03*
X006337Y010922D03*
D14*
X007887Y010887D03*
X008352Y010137D03*
X008922Y010137D03*
X010387Y010887D03*
X010952Y010137D03*
X011522Y010137D03*
X013487Y010887D03*
X013487Y011787D03*
X010387Y011787D03*
X007887Y011787D03*
X014577Y006112D03*
X015147Y006112D03*
X015702Y005037D03*
X016272Y005037D03*
X016902Y004787D03*
X017472Y004787D03*
X017472Y005437D03*
X016902Y005437D03*
X020402Y005437D03*
X020972Y005437D03*
X020972Y004787D03*
X020402Y004787D03*
X020452Y009737D03*
X021022Y009737D03*
D15*
X013385Y009227D03*
X011589Y009227D03*
X010585Y009227D03*
X008789Y009227D03*
X007785Y009227D03*
X005989Y009227D03*
D16*
X006198Y006038D03*
X006887Y006038D03*
X007576Y006038D03*
X007576Y006983D03*
X006887Y006983D03*
X006198Y006983D03*
X008998Y006983D03*
X009687Y006983D03*
X010376Y006983D03*
X010376Y006038D03*
X009687Y006038D03*
X008998Y006038D03*
X011798Y006038D03*
X012487Y006038D03*
X013176Y006038D03*
X013176Y006983D03*
X012487Y006983D03*
X011798Y006983D03*
D17*
X012663Y010090D03*
X012111Y010287D03*
X012663Y010484D03*
X012663Y011140D03*
X012663Y011534D03*
X012111Y011337D03*
X009863Y011190D03*
X009863Y011584D03*
X009311Y011387D03*
X009863Y010534D03*
X009863Y010140D03*
X009311Y010337D03*
X007413Y010484D03*
X006861Y010287D03*
X007413Y010090D03*
X007413Y011090D03*
X006861Y011287D03*
X007413Y011484D03*
M02*
