G75*
G70*
%OFA0B0*%
%FSLAX24Y24*%
%IPPOS*%
%LPD*%
%AMOC8*
5,1,8,0,0,1.08239X$1,22.5*
%
%ADD10R,0.0394X0.0315*%
%ADD11R,0.0315X0.0394*%
%ADD12R,0.0433X0.0630*%
%ADD13R,0.2126X0.2441*%
%ADD14R,0.0394X0.0630*%
%ADD15OC8,0.0669*%
%ADD16C,0.0669*%
%ADD17R,0.0866X0.0551*%
%ADD18R,0.0591X0.0394*%
%ADD19C,0.0520*%
%ADD20R,0.0787X0.1181*%
%ADD21OC8,0.0787*%
%ADD22R,0.0315X0.0315*%
%ADD23R,0.0460X0.0630*%
%ADD24R,0.0945X0.0591*%
%ADD25R,0.0472X0.0945*%
%ADD26R,0.0591X0.0945*%
%ADD27C,0.0394*%
%ADD28C,0.0100*%
%ADD29C,0.0472*%
%ADD30C,0.0120*%
%ADD31C,0.0270*%
%ADD32C,0.0080*%
%ADD33C,0.0531*%
%ADD34C,0.0376*%
%ADD35C,0.0200*%
%ADD36C,0.0160*%
%ADD37C,0.0470*%
%ADD38C,0.0337*%
%ADD39C,0.0400*%
D10*
X012400Y004243D03*
X012400Y004812D03*
X013600Y005293D03*
X013600Y005862D03*
X015450Y004362D03*
X015450Y003793D03*
X016050Y003793D03*
X016600Y003793D03*
X017200Y003793D03*
X017200Y004362D03*
X016600Y004362D03*
X016050Y004362D03*
X016900Y005443D03*
X016900Y006012D03*
X016300Y006943D03*
X015750Y006943D03*
X015750Y007512D03*
X016300Y007512D03*
X006625Y010518D03*
X006625Y011087D03*
X005775Y011087D03*
X005775Y010518D03*
X005000Y010462D03*
X005000Y009893D03*
D11*
X006115Y009227D03*
X006685Y009227D03*
X003835Y009177D03*
X003265Y009177D03*
X002460Y009377D03*
X001890Y009377D03*
X001885Y006127D03*
X001315Y006127D03*
X001315Y005577D03*
X001885Y005577D03*
X004415Y003652D03*
X004985Y003652D03*
X007190Y003752D03*
X007760Y003752D03*
X010815Y004077D03*
X011385Y004077D03*
X011385Y004677D03*
X010815Y004677D03*
X010815Y005227D03*
X011385Y005227D03*
X011665Y005877D03*
X012235Y005877D03*
X012235Y006427D03*
X011665Y006427D03*
X011665Y006977D03*
X012235Y006977D03*
X011485Y007777D03*
X010915Y007777D03*
X012865Y009277D03*
X013435Y009277D03*
X014965Y009577D03*
X015535Y009577D03*
X014735Y005877D03*
X014165Y005877D03*
X014165Y005277D03*
X014735Y005277D03*
X014735Y004677D03*
X014165Y004677D03*
D12*
X009485Y008377D03*
X008815Y008377D03*
X006685Y008377D03*
X006015Y008377D03*
X003885Y008377D03*
X003215Y008377D03*
D13*
X003550Y005493D03*
X006350Y005493D03*
X009150Y005493D03*
D14*
X008252Y008367D03*
X007248Y008367D03*
X005452Y008367D03*
X004448Y008367D03*
X002652Y008367D03*
X010048Y008367D03*
D15*
X001200Y010977D03*
X001250Y003777D03*
D16*
X001250Y004777D03*
X001200Y009977D03*
D17*
X008620Y010627D03*
X009880Y010627D03*
D18*
X004280Y011068D03*
X004280Y009887D03*
D19*
X002662Y010304D02*
X002662Y010650D01*
X003598Y010650D01*
X003598Y010304D01*
X002662Y010304D01*
D20*
X013450Y010677D03*
X014450Y010677D03*
X015450Y010677D03*
X016450Y010677D03*
X017450Y010677D03*
D21*
X017450Y007927D03*
X017450Y006877D03*
D22*
X014745Y006977D03*
X014155Y006977D03*
X014155Y006427D03*
X014745Y006427D03*
D23*
X015500Y005827D03*
X016100Y005827D03*
X014000Y008327D03*
X013400Y008327D03*
X012800Y008327D03*
D24*
X015600Y008327D03*
D25*
X017600Y005727D03*
D26*
X007550Y010777D03*
D27*
X013550Y004127D03*
D28*
X001695Y003593D02*
X001479Y003377D01*
X002250Y003377D01*
X002250Y008577D01*
X002346Y008577D01*
X002346Y008728D01*
X002410Y008792D01*
X002895Y008792D01*
X002943Y008792D01*
X002953Y008802D02*
X002919Y008768D01*
X002895Y008792D01*
X002953Y008802D02*
X003105Y008802D01*
X003105Y008871D01*
X003062Y008871D01*
X002998Y008935D01*
X002998Y009420D01*
X003062Y009484D01*
X003468Y009484D01*
X003533Y009420D01*
X003533Y009027D01*
X003567Y009027D01*
X003567Y009420D01*
X003632Y009484D01*
X004038Y009484D01*
X004102Y009420D01*
X004102Y009337D01*
X005384Y009337D01*
X005690Y009644D01*
X005784Y009737D01*
X006916Y009737D01*
X007116Y009537D01*
X007644Y009537D01*
X007592Y009589D01*
X007555Y009679D01*
X007555Y009776D01*
X007592Y009866D01*
X007661Y009935D01*
X007751Y009972D01*
X007849Y009972D01*
X007939Y009935D01*
X008008Y009866D01*
X008045Y009776D01*
X008045Y009679D01*
X008008Y009589D01*
X007956Y009537D01*
X010566Y009537D01*
X011366Y008737D01*
X011764Y008737D01*
X011811Y008785D01*
X011901Y008822D01*
X011999Y008822D01*
X012089Y008785D01*
X012158Y008716D01*
X012195Y008626D01*
X012195Y008529D01*
X012158Y008439D01*
X012089Y008370D01*
X011999Y008332D01*
X011901Y008332D01*
X011811Y008370D01*
X011764Y008417D01*
X011336Y008417D01*
X011466Y008287D01*
X011766Y008287D01*
X011866Y008187D01*
X011960Y008094D01*
X011960Y007944D01*
X012016Y007887D01*
X014184Y007887D01*
X014199Y007902D01*
X013724Y007902D01*
X013700Y007927D01*
X013698Y007924D01*
X013672Y007910D01*
X013644Y007902D01*
X013450Y007902D01*
X013450Y008277D01*
X013350Y008277D01*
X013350Y007902D01*
X013156Y007902D01*
X013128Y007910D01*
X013102Y007924D01*
X013100Y007927D01*
X013076Y007902D01*
X012524Y007902D01*
X012460Y007967D01*
X012460Y008688D01*
X012524Y008752D01*
X013076Y008752D01*
X013100Y008728D01*
X013102Y008730D01*
X013128Y008745D01*
X013156Y008752D01*
X013350Y008752D01*
X013350Y008377D01*
X013450Y008377D01*
X013450Y008752D01*
X013644Y008752D01*
X013672Y008745D01*
X013698Y008730D01*
X013700Y008728D01*
X013724Y008752D01*
X014276Y008752D01*
X014340Y008688D01*
X014340Y008194D01*
X014440Y008294D01*
X014478Y008332D01*
X014492Y008366D01*
X014561Y008435D01*
X014651Y008472D01*
X014749Y008472D01*
X014839Y008435D01*
X014908Y008366D01*
X014945Y008276D01*
X014945Y008179D01*
X014908Y008089D01*
X014846Y008027D01*
X014908Y007966D01*
X014945Y007876D01*
X014945Y007779D01*
X014908Y007689D01*
X014839Y007620D01*
X014749Y007582D01*
X014651Y007582D01*
X014602Y007603D01*
X014515Y007516D01*
X014589Y007485D01*
X014658Y007416D01*
X014695Y007326D01*
X014695Y007245D01*
X014717Y007245D01*
X014717Y007006D01*
X014774Y007006D01*
X014774Y007245D01*
X014890Y007245D01*
X014890Y007294D01*
X015005Y007409D01*
X015005Y007476D01*
X015042Y007566D01*
X015080Y007604D01*
X015080Y007924D01*
X015018Y007987D01*
X015018Y008668D01*
X015080Y008731D01*
X015080Y009271D01*
X014762Y009271D01*
X014698Y009335D01*
X014698Y009567D01*
X013655Y009567D01*
X013702Y009520D01*
X013702Y009035D01*
X013638Y008971D01*
X013232Y008971D01*
X013167Y009035D01*
X013167Y009520D01*
X013232Y009584D01*
X013247Y009584D01*
X013242Y009589D01*
X013205Y009679D01*
X013205Y009776D01*
X013240Y009861D01*
X013240Y009977D01*
X013011Y009977D01*
X012946Y010041D01*
X012946Y010917D01*
X012029Y010917D01*
X012198Y010848D01*
X012420Y010625D01*
X012541Y010335D01*
X012541Y010020D01*
X012420Y009730D01*
X012198Y009507D01*
X011907Y009387D01*
X011593Y009387D01*
X011302Y009507D01*
X011080Y009730D01*
X010959Y010020D01*
X010959Y010335D01*
X011080Y010625D01*
X011302Y010848D01*
X011471Y010917D01*
X010423Y010917D01*
X010423Y010677D01*
X009930Y010677D01*
X009930Y010577D01*
X009930Y010242D01*
X010327Y010242D01*
X010355Y010249D01*
X010381Y010264D01*
X010401Y010284D01*
X010415Y010309D01*
X010423Y010337D01*
X010423Y010577D01*
X009930Y010577D01*
X009830Y010577D01*
X009830Y010242D01*
X009432Y010242D01*
X009404Y010249D01*
X009379Y010264D01*
X009359Y010284D01*
X009344Y010309D01*
X009337Y010337D01*
X009337Y010577D01*
X009830Y010577D01*
X009830Y010677D01*
X009337Y010677D01*
X009337Y010917D01*
X009163Y010917D01*
X009163Y010306D01*
X009099Y010242D01*
X008141Y010242D01*
X008077Y010306D01*
X008077Y010917D01*
X007955Y010917D01*
X007955Y010259D01*
X007891Y010195D01*
X007209Y010195D01*
X007145Y010259D01*
X007145Y010927D01*
X006932Y010927D01*
X006932Y010884D01*
X006867Y010820D01*
X006383Y010820D01*
X006325Y010877D01*
X006075Y010877D01*
X006017Y010820D01*
X005533Y010820D01*
X005468Y010884D01*
X005468Y010917D01*
X005328Y010917D01*
X005345Y010876D01*
X005345Y010779D01*
X005308Y010689D01*
X005293Y010674D01*
X005299Y010662D01*
X005307Y010634D01*
X005307Y010491D01*
X005029Y010491D01*
X005029Y010433D01*
X005029Y010195D01*
X005211Y010195D01*
X005239Y010202D01*
X005264Y010217D01*
X005285Y010237D01*
X005299Y010262D01*
X005307Y010290D01*
X005307Y010433D01*
X005029Y010433D01*
X004971Y010433D01*
X004971Y010195D01*
X004789Y010195D01*
X004761Y010202D01*
X004736Y010217D01*
X004715Y010237D01*
X004701Y010262D01*
X004693Y010290D01*
X004693Y010433D01*
X004971Y010433D01*
X004971Y010491D01*
X004693Y010491D01*
X004693Y010634D01*
X004701Y010662D01*
X004715Y010687D01*
X004736Y010708D01*
X004761Y010722D01*
X004789Y010730D01*
X004875Y010730D01*
X004855Y010779D01*
X004855Y010876D01*
X004872Y010917D01*
X004685Y010917D01*
X004685Y010825D01*
X004621Y010761D01*
X003953Y010761D01*
X003954Y010759D01*
X003968Y010687D01*
X003968Y010527D01*
X003180Y010527D01*
X003180Y010427D01*
X003180Y009934D01*
X003588Y009934D01*
X003531Y009877D01*
X002691Y009877D01*
X002498Y009684D01*
X002257Y009684D01*
X002192Y009620D01*
X002192Y009188D01*
X002153Y009150D01*
X002158Y009166D01*
X002158Y009349D01*
X001919Y009349D01*
X001919Y009406D01*
X002158Y009406D01*
X002158Y009589D01*
X002150Y009617D01*
X002136Y009642D01*
X002115Y009662D01*
X002090Y009677D01*
X002062Y009684D01*
X001919Y009684D01*
X001919Y009406D01*
X001862Y009406D01*
X001862Y009684D01*
X001718Y009684D01*
X001690Y009677D01*
X001665Y009662D01*
X001645Y009642D01*
X001630Y009617D01*
X001623Y009589D01*
X001623Y009406D01*
X001862Y009406D01*
X001862Y009349D01*
X001919Y009349D01*
X001919Y009071D01*
X002047Y009071D01*
X001961Y009035D01*
X001892Y008966D01*
X001855Y008876D01*
X001855Y008779D01*
X001892Y008689D01*
X001961Y008620D01*
X002051Y008582D01*
X002149Y008582D01*
X002239Y008620D01*
X002308Y008689D01*
X002345Y008779D01*
X002345Y008804D01*
X002612Y009071D01*
X002663Y009071D01*
X002727Y009135D01*
X002727Y009376D01*
X002848Y009497D01*
X003689Y009497D01*
X003800Y009609D01*
X003875Y009683D01*
X003875Y009645D01*
X003939Y009580D01*
X004621Y009580D01*
X004685Y009645D01*
X004685Y009697D01*
X004693Y009697D01*
X004693Y009690D01*
X004758Y009625D01*
X005242Y009625D01*
X005307Y009690D01*
X005307Y010096D01*
X005242Y010160D01*
X004758Y010160D01*
X004693Y010096D01*
X004693Y010077D01*
X004685Y010077D01*
X004685Y010130D01*
X004621Y010194D01*
X003953Y010194D01*
X003954Y010196D01*
X003968Y010268D01*
X003968Y010427D01*
X003180Y010427D01*
X003080Y010427D01*
X003080Y009934D01*
X002625Y009934D01*
X002554Y009949D01*
X002486Y009976D01*
X002426Y010017D01*
X002374Y010068D01*
X002334Y010129D01*
X002306Y010196D01*
X002292Y010268D01*
X002292Y010427D01*
X003080Y010427D01*
X003080Y010527D01*
X002292Y010527D01*
X002292Y010687D01*
X002306Y010759D01*
X002334Y010826D01*
X002374Y010886D01*
X002426Y010938D01*
X002486Y010978D01*
X002554Y011006D01*
X002625Y011021D01*
X003080Y011021D01*
X003080Y010527D01*
X003180Y010527D01*
X003180Y011021D01*
X003635Y011021D01*
X003706Y011006D01*
X003774Y010978D01*
X003834Y010938D01*
X003875Y010898D01*
X003875Y011245D01*
X001561Y011245D01*
X001645Y011162D01*
X001645Y011026D01*
X001248Y011026D01*
X001248Y010929D01*
X001248Y010533D01*
X001384Y010533D01*
X001645Y010793D01*
X001645Y010929D01*
X001248Y010929D01*
X001152Y010929D01*
X001152Y010533D01*
X001016Y010533D01*
X000900Y010649D01*
X000900Y010306D01*
X000948Y010354D01*
X001112Y010422D01*
X001288Y010422D01*
X001452Y010354D01*
X001577Y010229D01*
X001645Y010066D01*
X001645Y009889D01*
X001577Y009726D01*
X001495Y009644D01*
X001495Y009449D01*
X001496Y009446D01*
X001496Y009309D01*
X001495Y009306D01*
X001495Y009049D01*
X001496Y009046D01*
X001496Y008909D01*
X001444Y008781D01*
X001346Y008684D01*
X001219Y008631D01*
X001081Y008631D01*
X000954Y008684D01*
X000900Y008738D01*
X000900Y006387D01*
X001065Y006387D01*
X001112Y006434D01*
X001518Y006434D01*
X001565Y006387D01*
X001616Y006387D01*
X001626Y006377D01*
X001631Y006377D01*
X001639Y006392D01*
X001660Y006412D01*
X001685Y006427D01*
X001713Y006434D01*
X001856Y006434D01*
X001856Y006156D01*
X001913Y006156D01*
X001913Y006434D01*
X002057Y006434D01*
X002085Y006427D01*
X002110Y006412D01*
X002130Y006392D01*
X002145Y006367D01*
X002152Y006339D01*
X002152Y006156D01*
X001913Y006156D01*
X001913Y006099D01*
X001913Y005606D01*
X001856Y005606D01*
X001856Y005884D01*
X001856Y006099D01*
X001913Y006099D01*
X002152Y006099D01*
X002152Y005916D01*
X002145Y005888D01*
X002130Y005863D01*
X002120Y005852D01*
X002130Y005842D01*
X002145Y005817D01*
X002152Y005789D01*
X002152Y005606D01*
X001913Y005606D01*
X001913Y005549D01*
X001913Y005271D01*
X002057Y005271D01*
X002085Y005278D01*
X002110Y005293D01*
X002130Y005313D01*
X002145Y005338D01*
X002152Y005366D01*
X002152Y005549D01*
X001913Y005549D01*
X001856Y005549D01*
X001856Y005271D01*
X001713Y005271D01*
X001710Y005271D01*
X001710Y004261D01*
X001616Y004167D01*
X001489Y004167D01*
X001695Y003962D01*
X001695Y003826D01*
X001298Y003826D01*
X001298Y003729D01*
X001695Y003729D01*
X001695Y003593D01*
X001673Y003571D02*
X002250Y003571D01*
X002250Y003473D02*
X001574Y003473D01*
X001695Y003670D02*
X002250Y003670D01*
X002250Y003768D02*
X001298Y003768D01*
X001695Y003867D02*
X002250Y003867D01*
X002250Y003965D02*
X001691Y003965D01*
X001592Y004064D02*
X002250Y004064D01*
X002250Y004162D02*
X001494Y004162D01*
X001550Y004327D02*
X000900Y004327D01*
X000900Y004503D01*
X000911Y004488D01*
X000960Y004438D01*
X001017Y004397D01*
X001079Y004365D01*
X001146Y004344D01*
X001202Y004335D01*
X001202Y004729D01*
X001298Y004729D01*
X001298Y004335D01*
X001354Y004344D01*
X001421Y004365D01*
X001483Y004397D01*
X001540Y004438D01*
X001550Y004449D01*
X001550Y004327D01*
X001550Y004359D02*
X001402Y004359D01*
X001298Y004359D02*
X001202Y004359D01*
X001202Y004458D02*
X001298Y004458D01*
X001298Y004556D02*
X001202Y004556D01*
X001202Y004655D02*
X001298Y004655D01*
X001298Y004826D02*
X001202Y004826D01*
X001202Y005220D01*
X001146Y005211D01*
X001079Y005190D01*
X001017Y005158D01*
X000960Y005117D01*
X000911Y005067D01*
X000900Y005052D01*
X000900Y006227D01*
X001048Y006227D01*
X001048Y006156D01*
X001287Y006156D01*
X001287Y006099D01*
X001344Y006099D01*
X001344Y005606D01*
X001287Y005606D01*
X001287Y005884D01*
X001287Y006099D01*
X001048Y006099D01*
X001048Y005916D01*
X001055Y005888D01*
X001070Y005863D01*
X001080Y005852D01*
X001070Y005842D01*
X001055Y005817D01*
X001048Y005789D01*
X001048Y005606D01*
X001287Y005606D01*
X001287Y005549D01*
X001344Y005549D01*
X001344Y005271D01*
X001487Y005271D01*
X001515Y005278D01*
X001540Y005293D01*
X001550Y005302D01*
X001550Y005106D01*
X001540Y005117D01*
X001483Y005158D01*
X001421Y005190D01*
X001354Y005211D01*
X001298Y005220D01*
X001298Y004826D01*
X001298Y004852D02*
X001202Y004852D01*
X001202Y004950D02*
X001298Y004950D01*
X001298Y005049D02*
X001202Y005049D01*
X001202Y005147D02*
X001298Y005147D01*
X001287Y005271D02*
X001287Y005549D01*
X001048Y005549D01*
X001048Y005366D01*
X001055Y005338D01*
X001070Y005313D01*
X001090Y005293D01*
X001115Y005278D01*
X001143Y005271D01*
X001287Y005271D01*
X001287Y005344D02*
X001344Y005344D01*
X001344Y005443D02*
X001287Y005443D01*
X001287Y005541D02*
X001344Y005541D01*
X001344Y005640D02*
X001287Y005640D01*
X001287Y005738D02*
X001344Y005738D01*
X001344Y005837D02*
X001287Y005837D01*
X001287Y005935D02*
X001344Y005935D01*
X001344Y006034D02*
X001287Y006034D01*
X001287Y006132D02*
X000900Y006132D01*
X000900Y006034D02*
X001048Y006034D01*
X001048Y005935D02*
X000900Y005935D01*
X000900Y005837D02*
X001067Y005837D01*
X001048Y005738D02*
X000900Y005738D01*
X000900Y005640D02*
X001048Y005640D01*
X001048Y005541D02*
X000900Y005541D01*
X000900Y005443D02*
X001048Y005443D01*
X001054Y005344D02*
X000900Y005344D01*
X000900Y005246D02*
X001550Y005246D01*
X001550Y005147D02*
X001497Y005147D01*
X001710Y005147D02*
X002250Y005147D01*
X002250Y005049D02*
X001710Y005049D01*
X001710Y004950D02*
X002250Y004950D01*
X002250Y004852D02*
X001710Y004852D01*
X001710Y004753D02*
X002250Y004753D01*
X002250Y004655D02*
X001710Y004655D01*
X001710Y004556D02*
X002250Y004556D01*
X002250Y004458D02*
X001710Y004458D01*
X001710Y004359D02*
X002250Y004359D01*
X002250Y004261D02*
X001710Y004261D01*
X001098Y004359D02*
X000900Y004359D01*
X000900Y004458D02*
X000941Y004458D01*
X000900Y005147D02*
X001003Y005147D01*
X001710Y005246D02*
X002250Y005246D01*
X002250Y005344D02*
X002146Y005344D01*
X002152Y005443D02*
X002250Y005443D01*
X002250Y005541D02*
X002152Y005541D01*
X002152Y005640D02*
X002250Y005640D01*
X002250Y005738D02*
X002152Y005738D01*
X002133Y005837D02*
X002250Y005837D01*
X002250Y005935D02*
X002152Y005935D01*
X002152Y006034D02*
X002250Y006034D01*
X002250Y006132D02*
X001913Y006132D01*
X001913Y006034D02*
X001856Y006034D01*
X001856Y005935D02*
X001913Y005935D01*
X001913Y005837D02*
X001856Y005837D01*
X001856Y005738D02*
X001913Y005738D01*
X001913Y005640D02*
X001856Y005640D01*
X001856Y005541D02*
X001913Y005541D01*
X001913Y005443D02*
X001856Y005443D01*
X001856Y005344D02*
X001913Y005344D01*
X001913Y006231D02*
X001856Y006231D01*
X001856Y006329D02*
X001913Y006329D01*
X001913Y006428D02*
X001856Y006428D01*
X001689Y006428D02*
X001525Y006428D01*
X001106Y006428D02*
X000900Y006428D01*
X000900Y006526D02*
X002250Y006526D01*
X002250Y006428D02*
X002080Y006428D01*
X002152Y006329D02*
X002250Y006329D01*
X002250Y006231D02*
X002152Y006231D01*
X002250Y006625D02*
X000900Y006625D01*
X000900Y006723D02*
X002250Y006723D01*
X002250Y006822D02*
X000900Y006822D01*
X000900Y006920D02*
X002250Y006920D01*
X002250Y007019D02*
X000900Y007019D01*
X000900Y007117D02*
X002250Y007117D01*
X002250Y007216D02*
X000900Y007216D01*
X000900Y007314D02*
X002250Y007314D01*
X002250Y007413D02*
X000900Y007413D01*
X000900Y007511D02*
X002250Y007511D01*
X002250Y007610D02*
X000900Y007610D01*
X000900Y007708D02*
X002250Y007708D01*
X002250Y007807D02*
X000900Y007807D01*
X000900Y007905D02*
X002250Y007905D01*
X002250Y008004D02*
X000900Y008004D01*
X000900Y008102D02*
X002250Y008102D01*
X002250Y008201D02*
X000900Y008201D01*
X000900Y008299D02*
X002250Y008299D01*
X002250Y008398D02*
X000900Y008398D01*
X000900Y008496D02*
X002250Y008496D01*
X002179Y008595D02*
X002346Y008595D01*
X002346Y008693D02*
X002310Y008693D01*
X002345Y008792D02*
X002410Y008792D01*
X002432Y008890D02*
X003042Y008890D01*
X002998Y008989D02*
X002530Y008989D01*
X002680Y009087D02*
X002998Y009087D01*
X002998Y009186D02*
X002727Y009186D01*
X002727Y009284D02*
X002998Y009284D01*
X002998Y009383D02*
X002734Y009383D01*
X002832Y009481D02*
X003059Y009481D01*
X003265Y009177D02*
X003265Y008427D01*
X003215Y008377D01*
X003205Y008367D01*
X002652Y008367D01*
X002450Y007927D02*
X004300Y007927D01*
X004300Y008727D01*
X005146Y008727D01*
X005146Y008007D01*
X005150Y008002D01*
X005150Y007927D01*
X007050Y007927D01*
X007050Y008727D01*
X007946Y008727D01*
X007946Y008007D01*
X007950Y008002D01*
X007950Y007927D01*
X009850Y007927D01*
X009850Y008677D01*
X010250Y008677D01*
X010250Y006877D01*
X002450Y006877D01*
X002450Y007927D01*
X002450Y007905D02*
X010250Y007905D01*
X010250Y007807D02*
X002450Y007807D01*
X002450Y007708D02*
X010250Y007708D01*
X010250Y007610D02*
X002450Y007610D01*
X002450Y007511D02*
X010250Y007511D01*
X010250Y007413D02*
X002450Y007413D01*
X002450Y007314D02*
X010250Y007314D01*
X010250Y007216D02*
X002450Y007216D01*
X002450Y007117D02*
X010250Y007117D01*
X010250Y007019D02*
X002450Y007019D01*
X002450Y006920D02*
X010250Y006920D01*
X010100Y007027D02*
X010415Y006712D01*
X010415Y005512D01*
X010650Y005277D01*
X010750Y005277D01*
X010800Y005227D01*
X010600Y005577D02*
X010600Y006827D01*
X010450Y006977D01*
X010450Y008501D01*
X010755Y008196D01*
X010755Y008084D01*
X010712Y008084D01*
X010648Y008020D01*
X010648Y007535D01*
X010712Y007471D01*
X011118Y007471D01*
X011183Y007535D01*
X011183Y008020D01*
X011118Y008084D01*
X011075Y008084D01*
X011075Y008226D01*
X011240Y008061D01*
X011249Y008052D01*
X011217Y008020D01*
X011217Y007535D01*
X011282Y007471D01*
X011481Y007471D01*
X011584Y007367D01*
X011864Y007367D01*
X011781Y007284D01*
X011462Y007284D01*
X011398Y007220D01*
X011398Y006735D01*
X011430Y006702D01*
X011398Y006670D01*
X011398Y006185D01*
X011430Y006152D01*
X011398Y006120D01*
X011398Y006102D01*
X011349Y006122D01*
X011251Y006122D01*
X011161Y006085D01*
X011092Y006016D01*
X011055Y005926D01*
X011055Y005829D01*
X011092Y005739D01*
X011161Y005670D01*
X011251Y005632D01*
X011349Y005632D01*
X011398Y005653D01*
X011398Y005635D01*
X011462Y005571D01*
X011868Y005571D01*
X011933Y005635D01*
X011933Y005968D01*
X011967Y005934D01*
X011967Y005635D01*
X012032Y005571D01*
X012189Y005571D01*
X012200Y005562D01*
X012289Y005571D01*
X012438Y005571D01*
X012502Y005635D01*
X012502Y006120D01*
X012470Y006152D01*
X012502Y006185D01*
X012502Y006317D01*
X012614Y006317D01*
X012661Y006270D01*
X012751Y006232D01*
X012849Y006232D01*
X012939Y006270D01*
X013008Y006339D01*
X013045Y006429D01*
X013045Y006526D01*
X013008Y006616D01*
X012971Y006652D01*
X013008Y006689D01*
X013045Y006779D01*
X013045Y006856D01*
X013101Y006832D01*
X013169Y006832D01*
X013290Y006711D01*
X013290Y005911D01*
X013293Y005908D01*
X013293Y005659D01*
X013358Y005595D01*
X013842Y005595D01*
X013898Y005650D01*
X013898Y005635D01*
X013955Y005577D01*
X013898Y005520D01*
X013898Y005505D01*
X013842Y005560D01*
X013358Y005560D01*
X013293Y005496D01*
X013293Y005397D01*
X013255Y005359D01*
X013024Y005128D01*
X013045Y005179D01*
X013045Y005276D01*
X013008Y005366D01*
X012939Y005435D01*
X012849Y005472D01*
X012751Y005472D01*
X012661Y005435D01*
X012592Y005366D01*
X012555Y005276D01*
X012555Y005179D01*
X012592Y005089D01*
X012601Y005080D01*
X012429Y005080D01*
X012429Y004841D01*
X012707Y004841D01*
X012707Y004984D01*
X012702Y005003D01*
X012751Y004982D01*
X012849Y004982D01*
X012900Y005004D01*
X012680Y004783D01*
X012429Y004783D01*
X012429Y004545D01*
X012441Y004545D01*
X012407Y004510D01*
X012195Y004510D01*
X012195Y004545D01*
X012371Y004545D01*
X012371Y004783D01*
X012429Y004783D01*
X012429Y004841D01*
X012371Y004841D01*
X012371Y004783D01*
X012093Y004783D01*
X012093Y004731D01*
X012089Y004735D01*
X011999Y004772D01*
X011901Y004772D01*
X011811Y004735D01*
X011764Y004687D01*
X011652Y004687D01*
X011652Y004920D01*
X011620Y004952D01*
X011652Y004985D01*
X011652Y005470D01*
X011588Y005534D01*
X011182Y005534D01*
X011175Y005527D01*
X011100Y005527D01*
X011100Y005577D01*
X010600Y005577D01*
X010600Y005640D02*
X011233Y005640D01*
X011367Y005640D02*
X011398Y005640D01*
X011300Y005877D02*
X011665Y005877D01*
X011933Y005837D02*
X011967Y005837D01*
X011966Y005935D02*
X011933Y005935D01*
X012235Y005877D02*
X012250Y005727D01*
X012250Y005877D02*
X011700Y006427D01*
X011665Y006427D01*
X011665Y006977D01*
X011715Y006993D01*
X012050Y007327D01*
X012500Y007327D01*
X012650Y007177D01*
X012800Y007177D01*
X013019Y007288D02*
X013008Y007316D01*
X012956Y007367D01*
X014222Y007367D01*
X014205Y007326D01*
X014205Y007245D01*
X014015Y007245D01*
X013949Y007272D01*
X013851Y007272D01*
X013761Y007235D01*
X013692Y007166D01*
X013655Y007076D01*
X013655Y006979D01*
X013692Y006889D01*
X013761Y006820D01*
X013851Y006782D01*
X013887Y006782D01*
X013887Y006774D01*
X013952Y006710D01*
X013990Y006710D01*
X013989Y006695D01*
X013952Y006695D01*
X013887Y006631D01*
X013887Y006224D01*
X013945Y006167D01*
X013898Y006120D01*
X013898Y006074D01*
X013842Y006130D01*
X013610Y006130D01*
X013610Y006711D01*
X013610Y006844D01*
X013395Y007059D01*
X013395Y007126D01*
X013358Y007216D01*
X013742Y007216D01*
X013672Y007117D02*
X013395Y007117D01*
X013435Y007019D02*
X013655Y007019D01*
X013679Y006920D02*
X013533Y006920D01*
X013610Y006822D02*
X013759Y006822D01*
X013610Y006723D02*
X013938Y006723D01*
X013887Y006625D02*
X013610Y006625D01*
X013610Y006526D02*
X013887Y006526D01*
X013887Y006428D02*
X013610Y006428D01*
X013610Y006329D02*
X013887Y006329D01*
X013887Y006231D02*
X013610Y006231D01*
X013610Y006132D02*
X013910Y006132D01*
X014165Y005877D02*
X013615Y005877D01*
X013600Y005862D01*
X013500Y005977D01*
X013450Y005977D01*
X013450Y006777D01*
X013150Y007077D01*
X013358Y007216D02*
X013289Y007285D01*
X013199Y007322D01*
X013101Y007322D01*
X013019Y007288D01*
X013008Y007314D02*
X013082Y007314D01*
X013218Y007314D02*
X014205Y007314D01*
X014300Y007527D02*
X011650Y007527D01*
X011500Y007677D01*
X011500Y007777D01*
X011217Y007807D02*
X011183Y007807D01*
X011183Y007905D02*
X011217Y007905D01*
X011217Y008004D02*
X011183Y008004D01*
X011199Y008102D02*
X011075Y008102D01*
X011075Y008201D02*
X011100Y008201D01*
X010915Y008262D02*
X010300Y008877D01*
X009000Y008877D01*
X008815Y008693D01*
X008815Y008377D01*
X008263Y008377D01*
X008252Y008367D01*
X007946Y008398D02*
X007050Y008398D01*
X007050Y008496D02*
X007946Y008496D01*
X007946Y008577D02*
X007554Y008577D01*
X007554Y008697D01*
X007547Y008725D01*
X007533Y008750D01*
X007512Y008770D01*
X007487Y008785D01*
X007459Y008792D01*
X007296Y008792D01*
X007199Y008792D01*
X007050Y008792D01*
X007050Y008917D01*
X007950Y008917D01*
X007950Y008732D01*
X007946Y008728D01*
X007946Y008577D01*
X007946Y008595D02*
X007050Y008595D01*
X007050Y008693D02*
X007946Y008693D01*
X007554Y008693D01*
X007554Y008595D02*
X007946Y008595D01*
X007950Y008792D02*
X007460Y008792D01*
X007296Y008792D02*
X007296Y008577D01*
X007199Y008577D01*
X007199Y008792D01*
X007199Y008693D02*
X007296Y008693D01*
X007296Y008595D02*
X007199Y008595D01*
X007248Y008367D02*
X006645Y008367D01*
X006685Y008377D01*
X007050Y008299D02*
X007946Y008299D01*
X007946Y008201D02*
X007050Y008201D01*
X007050Y008102D02*
X007946Y008102D01*
X007948Y008004D02*
X007050Y008004D01*
X007050Y008890D02*
X007950Y008890D01*
X007999Y009580D02*
X011229Y009580D01*
X011131Y009678D02*
X009847Y009678D01*
X009858Y009689D02*
X009895Y009779D01*
X009895Y009876D01*
X009858Y009966D01*
X009789Y010035D01*
X009699Y010072D01*
X009601Y010072D01*
X009511Y010035D01*
X009442Y009966D01*
X009405Y009876D01*
X009405Y009779D01*
X009442Y009689D01*
X009511Y009620D01*
X009601Y009582D01*
X009699Y009582D01*
X009789Y009620D01*
X009858Y009689D01*
X009894Y009777D02*
X011060Y009777D01*
X011019Y009875D02*
X009895Y009875D01*
X009850Y009974D02*
X010979Y009974D01*
X010959Y010072D02*
X005307Y010072D01*
X005307Y009974D02*
X009450Y009974D01*
X009405Y009875D02*
X007998Y009875D01*
X008045Y009777D02*
X009406Y009777D01*
X009453Y009678D02*
X008045Y009678D01*
X007601Y009580D02*
X007074Y009580D01*
X006975Y009678D02*
X007555Y009678D01*
X007555Y009777D02*
X005307Y009777D01*
X005307Y009875D02*
X007602Y009875D01*
X007955Y010269D02*
X008114Y010269D01*
X008077Y010368D02*
X007955Y010368D01*
X007955Y010466D02*
X008077Y010466D01*
X008077Y010565D02*
X007955Y010565D01*
X007955Y010663D02*
X008077Y010663D01*
X008077Y010762D02*
X007955Y010762D01*
X007955Y010860D02*
X008077Y010860D01*
X007145Y010860D02*
X006908Y010860D01*
X006864Y010778D02*
X006836Y010785D01*
X006654Y010785D01*
X006654Y010547D01*
X006596Y010547D01*
X006596Y010785D01*
X006414Y010785D01*
X006386Y010778D01*
X006361Y010763D01*
X006340Y010743D01*
X006326Y010718D01*
X006318Y010690D01*
X006318Y010547D01*
X006596Y010547D01*
X006596Y010489D01*
X006318Y010489D01*
X006318Y010346D01*
X006326Y010318D01*
X006340Y010293D01*
X006361Y010272D01*
X006386Y010258D01*
X006414Y010250D01*
X006596Y010250D01*
X006596Y010489D01*
X006654Y010489D01*
X006654Y010547D01*
X006932Y010547D01*
X006932Y010690D01*
X006924Y010718D01*
X006910Y010743D01*
X006889Y010763D01*
X006864Y010778D01*
X006891Y010762D02*
X007145Y010762D01*
X007145Y010663D02*
X006932Y010663D01*
X006932Y010565D02*
X007145Y010565D01*
X007145Y010466D02*
X006932Y010466D01*
X006932Y010489D02*
X006932Y010346D01*
X006924Y010318D01*
X006910Y010293D01*
X006889Y010272D01*
X006864Y010258D01*
X006836Y010250D01*
X006654Y010250D01*
X006654Y010489D01*
X006932Y010489D01*
X006932Y010368D02*
X007145Y010368D01*
X007145Y010269D02*
X006884Y010269D01*
X006654Y010269D02*
X006596Y010269D01*
X006596Y010368D02*
X006654Y010368D01*
X006654Y010466D02*
X006596Y010466D01*
X006596Y010565D02*
X006654Y010565D01*
X006654Y010663D02*
X006596Y010663D01*
X006596Y010762D02*
X006654Y010762D01*
X006359Y010762D02*
X006041Y010762D01*
X006039Y010763D02*
X006014Y010778D01*
X005986Y010785D01*
X005804Y010785D01*
X005804Y010547D01*
X005746Y010547D01*
X005746Y010785D01*
X005564Y010785D01*
X005536Y010778D01*
X005511Y010763D01*
X005490Y010743D01*
X005476Y010718D01*
X005468Y010690D01*
X005468Y010547D01*
X005746Y010547D01*
X005746Y010489D01*
X005468Y010489D01*
X005468Y010346D01*
X005476Y010318D01*
X005490Y010293D01*
X005511Y010272D01*
X005536Y010258D01*
X005564Y010250D01*
X005746Y010250D01*
X005746Y010489D01*
X005804Y010489D01*
X005804Y010547D01*
X006082Y010547D01*
X006082Y010690D01*
X006074Y010718D01*
X006060Y010743D01*
X006039Y010763D01*
X006058Y010860D02*
X006342Y010860D01*
X006318Y010663D02*
X006082Y010663D01*
X006082Y010565D02*
X006318Y010565D01*
X006318Y010466D02*
X006082Y010466D01*
X006082Y010489D02*
X006082Y010346D01*
X006074Y010318D01*
X006060Y010293D01*
X006039Y010272D01*
X006014Y010258D01*
X005986Y010250D01*
X005804Y010250D01*
X005804Y010489D01*
X006082Y010489D01*
X006082Y010368D02*
X006318Y010368D01*
X006366Y010269D02*
X006034Y010269D01*
X005804Y010269D02*
X005746Y010269D01*
X005746Y010368D02*
X005804Y010368D01*
X005804Y010466D02*
X005746Y010466D01*
X005746Y010565D02*
X005804Y010565D01*
X005804Y010663D02*
X005746Y010663D01*
X005746Y010762D02*
X005804Y010762D01*
X005509Y010762D02*
X005338Y010762D01*
X005345Y010860D02*
X005492Y010860D01*
X005468Y010663D02*
X005299Y010663D01*
X005307Y010565D02*
X005468Y010565D01*
X005468Y010466D02*
X005029Y010466D01*
X004971Y010466D02*
X003180Y010466D01*
X003180Y010368D02*
X003080Y010368D01*
X003080Y010466D02*
X000900Y010466D01*
X000900Y010368D02*
X000981Y010368D01*
X000984Y010565D02*
X000900Y010565D01*
X001152Y010565D02*
X001248Y010565D01*
X001248Y010663D02*
X001152Y010663D01*
X001152Y010762D02*
X001248Y010762D01*
X001248Y010860D02*
X001152Y010860D01*
X001248Y010959D02*
X002457Y010959D01*
X002357Y010860D02*
X001645Y010860D01*
X001613Y010762D02*
X002307Y010762D01*
X002292Y010663D02*
X001515Y010663D01*
X001416Y010565D02*
X002292Y010565D01*
X002292Y010368D02*
X001419Y010368D01*
X001537Y010269D02*
X002292Y010269D01*
X002316Y010171D02*
X001601Y010171D01*
X001642Y010072D02*
X002371Y010072D01*
X002492Y009974D02*
X001645Y009974D01*
X001639Y009875D02*
X002689Y009875D01*
X002590Y009777D02*
X001598Y009777D01*
X001530Y009678D02*
X001697Y009678D01*
X001623Y009580D02*
X001495Y009580D01*
X001495Y009481D02*
X001623Y009481D01*
X001623Y009349D02*
X001623Y009166D01*
X001630Y009138D01*
X001645Y009113D01*
X001665Y009093D01*
X001690Y009078D01*
X001718Y009071D01*
X001862Y009071D01*
X001862Y009349D01*
X001623Y009349D01*
X001623Y009284D02*
X001495Y009284D01*
X001495Y009186D02*
X001623Y009186D01*
X001674Y009087D02*
X001495Y009087D01*
X001496Y008989D02*
X001915Y008989D01*
X001919Y009087D02*
X001862Y009087D01*
X001862Y009186D02*
X001919Y009186D01*
X001919Y009284D02*
X001862Y009284D01*
X001862Y009383D02*
X001496Y009383D01*
X001862Y009481D02*
X001919Y009481D01*
X001919Y009383D02*
X002192Y009383D01*
X002192Y009481D02*
X002158Y009481D01*
X002158Y009580D02*
X002192Y009580D01*
X002251Y009678D02*
X002084Y009678D01*
X001919Y009678D02*
X001862Y009678D01*
X001862Y009580D02*
X001919Y009580D01*
X002158Y009284D02*
X002192Y009284D01*
X002190Y009186D02*
X002158Y009186D01*
X001861Y008890D02*
X001489Y008890D01*
X001448Y008792D02*
X001855Y008792D01*
X001890Y008693D02*
X001356Y008693D01*
X000944Y008693D02*
X000900Y008693D01*
X000900Y008595D02*
X002021Y008595D01*
X003533Y009087D02*
X003567Y009087D01*
X003567Y009186D02*
X003533Y009186D01*
X003533Y009284D02*
X003567Y009284D01*
X003567Y009383D02*
X003533Y009383D01*
X003471Y009481D02*
X003629Y009481D01*
X003771Y009580D02*
X005626Y009580D01*
X005528Y009481D02*
X004041Y009481D01*
X004102Y009383D02*
X005429Y009383D01*
X005450Y009177D02*
X005850Y009577D01*
X006850Y009577D01*
X007050Y009377D01*
X010500Y009377D01*
X011300Y008577D01*
X011950Y008577D01*
X012182Y008496D02*
X012460Y008496D01*
X012460Y008398D02*
X012117Y008398D01*
X012195Y008595D02*
X012460Y008595D01*
X012465Y008693D02*
X012167Y008693D01*
X012072Y008792D02*
X015080Y008792D01*
X015080Y008890D02*
X011213Y008890D01*
X011312Y008792D02*
X011828Y008792D01*
X011783Y008398D02*
X011356Y008398D01*
X011454Y008299D02*
X012460Y008299D01*
X012460Y008201D02*
X011853Y008201D01*
X011951Y008102D02*
X012460Y008102D01*
X012460Y008004D02*
X011960Y008004D01*
X011998Y007905D02*
X012521Y007905D01*
X013079Y007905D02*
X013144Y007905D01*
X013350Y007905D02*
X013450Y007905D01*
X013450Y008004D02*
X013350Y008004D01*
X013350Y008102D02*
X013450Y008102D01*
X013450Y008201D02*
X013350Y008201D01*
X013350Y008398D02*
X013450Y008398D01*
X013450Y008496D02*
X013350Y008496D01*
X013350Y008595D02*
X013450Y008595D01*
X013450Y008693D02*
X013350Y008693D01*
X013213Y008989D02*
X013084Y008989D01*
X013090Y008993D02*
X013111Y009013D01*
X013125Y009038D01*
X013133Y009066D01*
X013133Y009249D01*
X012894Y009249D01*
X012894Y009306D01*
X013133Y009306D01*
X013133Y009489D01*
X013125Y009517D01*
X013111Y009542D01*
X013090Y009562D01*
X013065Y009577D01*
X013037Y009584D01*
X012894Y009584D01*
X012894Y009306D01*
X012837Y009306D01*
X012837Y009584D01*
X012693Y009584D01*
X012665Y009577D01*
X012640Y009562D01*
X012620Y009542D01*
X012605Y009517D01*
X012598Y009489D01*
X012598Y009306D01*
X012837Y009306D01*
X012837Y009249D01*
X012894Y009249D01*
X012894Y008971D01*
X013037Y008971D01*
X013065Y008978D01*
X013090Y008993D01*
X013133Y009087D02*
X013167Y009087D01*
X013167Y009186D02*
X013133Y009186D01*
X013167Y009284D02*
X012894Y009284D01*
X012837Y009284D02*
X010819Y009284D01*
X010918Y009186D02*
X012598Y009186D01*
X012598Y009249D02*
X012598Y009066D01*
X012605Y009038D01*
X012620Y009013D01*
X012640Y008993D01*
X012665Y008978D01*
X012693Y008971D01*
X012837Y008971D01*
X012837Y009249D01*
X012598Y009249D01*
X012598Y009383D02*
X010721Y009383D01*
X010622Y009481D02*
X011364Y009481D01*
X011016Y009087D02*
X012598Y009087D01*
X012647Y008989D02*
X011115Y008989D01*
X010450Y009077D02*
X011400Y008127D01*
X011700Y008127D01*
X011800Y008027D01*
X011800Y007877D01*
X011950Y007727D01*
X014250Y007727D01*
X014450Y007927D01*
X014450Y008077D01*
X014600Y008227D01*
X014700Y008227D01*
X014524Y008398D02*
X014340Y008398D01*
X014340Y008496D02*
X015018Y008496D01*
X015018Y008398D02*
X014876Y008398D01*
X014935Y008299D02*
X015018Y008299D01*
X015018Y008201D02*
X014945Y008201D01*
X014913Y008102D02*
X015018Y008102D01*
X015018Y008004D02*
X014870Y008004D01*
X014933Y007905D02*
X015080Y007905D01*
X015080Y007807D02*
X014945Y007807D01*
X014916Y007708D02*
X015080Y007708D01*
X015080Y007610D02*
X014815Y007610D01*
X015020Y007511D02*
X014525Y007511D01*
X014659Y007413D02*
X015005Y007413D01*
X014911Y007314D02*
X014695Y007314D01*
X014717Y007216D02*
X014774Y007216D01*
X014774Y007117D02*
X014717Y007117D01*
X014717Y007019D02*
X014774Y007019D01*
X014717Y007006D02*
X014717Y006949D01*
X014774Y006949D01*
X014774Y006710D01*
X014890Y006710D01*
X014890Y006695D01*
X014542Y006695D01*
X014478Y006631D01*
X014478Y006224D01*
X014525Y006177D01*
X014467Y006120D01*
X014467Y005635D01*
X014529Y005573D01*
X014510Y005562D01*
X014489Y005542D01*
X014475Y005517D01*
X014467Y005489D01*
X014467Y005306D01*
X014706Y005306D01*
X014706Y005249D01*
X014467Y005249D01*
X014467Y005194D01*
X014433Y005208D01*
X014433Y005520D01*
X014375Y005577D01*
X014433Y005635D01*
X014433Y006120D01*
X014375Y006177D01*
X014422Y006224D01*
X014422Y006631D01*
X014358Y006695D01*
X014315Y006695D01*
X014315Y006710D01*
X014358Y006710D01*
X014422Y006774D01*
X014422Y007032D01*
X014478Y007032D01*
X014478Y007006D01*
X014717Y007006D01*
X014717Y006949D02*
X014478Y006949D01*
X014478Y006806D01*
X014485Y006778D01*
X014500Y006752D01*
X014520Y006732D01*
X014545Y006717D01*
X014573Y006710D01*
X014717Y006710D01*
X014717Y006949D01*
X014717Y006920D02*
X014774Y006920D01*
X014774Y006822D02*
X014717Y006822D01*
X014717Y006723D02*
X014774Y006723D01*
X014535Y006723D02*
X014371Y006723D01*
X014422Y006625D02*
X014478Y006625D01*
X014478Y006526D02*
X014422Y006526D01*
X014422Y006428D02*
X014478Y006428D01*
X014478Y006329D02*
X014422Y006329D01*
X014422Y006231D02*
X014478Y006231D01*
X014480Y006132D02*
X014420Y006132D01*
X014433Y006034D02*
X014467Y006034D01*
X014467Y005935D02*
X014433Y005935D01*
X014433Y005837D02*
X014467Y005837D01*
X014467Y005738D02*
X014433Y005738D01*
X014433Y005640D02*
X014467Y005640D01*
X014489Y005541D02*
X014411Y005541D01*
X014433Y005443D02*
X014467Y005443D01*
X014467Y005344D02*
X014433Y005344D01*
X014433Y005246D02*
X014467Y005246D01*
X014706Y005246D02*
X014763Y005246D01*
X014763Y005249D02*
X014763Y004706D01*
X014706Y004706D01*
X014706Y004649D01*
X014467Y004649D01*
X014467Y004466D01*
X014475Y004438D01*
X014489Y004413D01*
X014510Y004393D01*
X014535Y004378D01*
X014563Y004371D01*
X014706Y004371D01*
X014706Y004649D01*
X014763Y004649D01*
X014763Y004371D01*
X014831Y004371D01*
X014750Y004290D01*
X014750Y004101D01*
X014699Y004122D01*
X014601Y004122D01*
X014511Y004085D01*
X014442Y004016D01*
X014405Y003926D01*
X014405Y003829D01*
X014442Y003739D01*
X014504Y003677D01*
X012924Y003677D01*
X012945Y003729D01*
X012945Y003826D01*
X012908Y003916D01*
X012839Y003985D01*
X012749Y004022D01*
X012690Y004022D01*
X012707Y004040D01*
X012707Y004358D01*
X013374Y005025D01*
X013505Y005025D01*
X013505Y004929D01*
X013542Y004839D01*
X013611Y004770D01*
X013701Y004732D01*
X013799Y004732D01*
X013889Y004770D01*
X013898Y004779D01*
X013898Y004435D01*
X013962Y004371D01*
X014368Y004371D01*
X014433Y004435D01*
X014433Y004747D01*
X014467Y004761D01*
X014467Y004706D01*
X014706Y004706D01*
X014706Y004984D01*
X014706Y005249D01*
X014763Y005249D01*
X014763Y005306D01*
X015002Y005306D01*
X015002Y005489D01*
X014995Y005517D01*
X014980Y005542D01*
X014960Y005562D01*
X014940Y005573D01*
X015002Y005635D01*
X015002Y005899D01*
X015126Y005776D01*
X015154Y005734D01*
X015160Y005732D01*
X015160Y005467D01*
X015224Y005402D01*
X015776Y005402D01*
X015800Y005427D01*
X015802Y005424D01*
X015828Y005410D01*
X015856Y005402D01*
X016050Y005402D01*
X016050Y005777D01*
X016150Y005777D01*
X016150Y005402D01*
X016344Y005402D01*
X016372Y005410D01*
X016398Y005424D01*
X016418Y005445D01*
X016432Y005469D01*
X016484Y005417D01*
X016545Y005356D01*
X016546Y005349D01*
X016591Y005310D01*
X016593Y005308D01*
X016593Y005240D01*
X016635Y005198D01*
X016605Y005126D01*
X016605Y005029D01*
X016642Y004939D01*
X016711Y004870D01*
X016801Y004832D01*
X016899Y004832D01*
X016989Y004870D01*
X017058Y004939D01*
X017095Y005029D01*
X017095Y005126D01*
X017075Y005175D01*
X017142Y005175D01*
X017207Y005240D01*
X017207Y005646D01*
X017142Y005710D01*
X016710Y005710D01*
X016710Y005745D01*
X017142Y005745D01*
X017207Y005809D01*
X017207Y006215D01*
X017142Y006280D01*
X017078Y006280D01*
X017207Y006408D01*
X017241Y006374D01*
X017659Y006374D01*
X017823Y006538D01*
X017823Y006310D01*
X017650Y006310D01*
X017650Y005777D01*
X017550Y005777D01*
X017550Y005677D01*
X017650Y005677D01*
X017650Y005145D01*
X017823Y005145D01*
X017823Y003377D01*
X015112Y003377D01*
X015112Y003377D01*
X015200Y003465D01*
X015200Y003539D01*
X015211Y003533D01*
X015239Y003525D01*
X015421Y003525D01*
X015421Y003764D01*
X015479Y003764D01*
X015479Y003822D01*
X015757Y003822D01*
X016021Y003822D01*
X016021Y003764D01*
X015479Y003764D01*
X015479Y003525D01*
X015661Y003525D01*
X015689Y003533D01*
X015714Y003547D01*
X015735Y003568D01*
X015749Y003593D01*
X015750Y003595D01*
X015751Y003593D01*
X015765Y003568D01*
X015786Y003547D01*
X015811Y003533D01*
X015839Y003525D01*
X016021Y003525D01*
X016021Y003764D01*
X016079Y003764D01*
X016079Y003822D01*
X016571Y003822D01*
X016571Y003764D01*
X016293Y003764D01*
X016079Y003764D01*
X016079Y003525D01*
X016261Y003525D01*
X016289Y003533D01*
X016314Y003547D01*
X016325Y003558D01*
X016336Y003547D01*
X016361Y003533D01*
X016389Y003525D01*
X016571Y003525D01*
X016571Y003764D01*
X016629Y003764D01*
X016629Y003822D01*
X016907Y003822D01*
X017171Y003822D01*
X017171Y004060D01*
X016989Y004060D01*
X016961Y004053D01*
X016936Y004038D01*
X016915Y004018D01*
X016901Y003993D01*
X016900Y003990D01*
X016899Y003993D01*
X016885Y004018D01*
X016864Y004038D01*
X016839Y004053D01*
X016811Y004060D01*
X016750Y004060D01*
X016750Y004095D01*
X016842Y004095D01*
X016900Y004152D01*
X016958Y004095D01*
X017442Y004095D01*
X017507Y004159D01*
X017507Y004565D01*
X017442Y004630D01*
X016958Y004630D01*
X016900Y004572D01*
X016842Y004630D01*
X016760Y004630D01*
X016760Y004644D01*
X016666Y004737D01*
X016595Y004809D01*
X016595Y004876D01*
X016558Y004966D01*
X016489Y005035D01*
X016399Y005072D01*
X016301Y005072D01*
X016211Y005035D01*
X016142Y004966D01*
X016105Y004876D01*
X016105Y004779D01*
X016142Y004689D01*
X016201Y004630D01*
X015808Y004630D01*
X015750Y004572D01*
X015696Y004626D01*
X015708Y004639D01*
X015745Y004729D01*
X015745Y004826D01*
X015708Y004916D01*
X015639Y004985D01*
X015549Y005022D01*
X015451Y005022D01*
X015361Y004985D01*
X015292Y004916D01*
X015255Y004826D01*
X015255Y004729D01*
X015290Y004644D01*
X015290Y004630D01*
X015208Y004630D01*
X015143Y004565D01*
X015143Y004512D01*
X015002Y004512D01*
X015002Y004649D01*
X014763Y004649D01*
X014763Y004706D01*
X015002Y004706D01*
X015002Y004889D01*
X014995Y004917D01*
X014980Y004942D01*
X014960Y004962D01*
X014935Y004977D01*
X014932Y004977D01*
X014935Y004978D01*
X014960Y004993D01*
X014980Y005013D01*
X014995Y005038D01*
X015002Y005066D01*
X015002Y005249D01*
X014763Y005249D01*
X014763Y005147D02*
X014706Y005147D01*
X014706Y005049D02*
X014763Y005049D01*
X014763Y004950D02*
X014706Y004950D01*
X014706Y004852D02*
X014763Y004852D01*
X014763Y004753D02*
X014706Y004753D01*
X014706Y004655D02*
X014433Y004655D01*
X014433Y004556D02*
X014467Y004556D01*
X014469Y004458D02*
X014433Y004458D01*
X014706Y004458D02*
X014763Y004458D01*
X014763Y004556D02*
X014706Y004556D01*
X014763Y004655D02*
X015286Y004655D01*
X015255Y004753D02*
X015002Y004753D01*
X015002Y004852D02*
X015266Y004852D01*
X015327Y004950D02*
X014972Y004950D01*
X014998Y005049D02*
X016245Y005049D01*
X016136Y004950D02*
X015673Y004950D01*
X015734Y004852D02*
X016105Y004852D01*
X016115Y004753D02*
X015745Y004753D01*
X015714Y004655D02*
X016176Y004655D01*
X016350Y004827D02*
X016600Y004577D01*
X016600Y004362D01*
X017200Y004362D01*
X017507Y004359D02*
X017823Y004359D01*
X017823Y004261D02*
X017507Y004261D01*
X017507Y004162D02*
X017823Y004162D01*
X017823Y004064D02*
X016750Y004064D01*
X016629Y003768D02*
X017171Y003768D01*
X017171Y003764D02*
X016629Y003764D01*
X016629Y003525D01*
X016811Y003525D01*
X016839Y003533D01*
X016864Y003547D01*
X016885Y003568D01*
X016899Y003593D01*
X016900Y003595D01*
X016901Y003593D01*
X016915Y003568D01*
X016936Y003547D01*
X016961Y003533D01*
X016989Y003525D01*
X017171Y003525D01*
X017171Y003764D01*
X017171Y003822D01*
X017229Y003822D01*
X017229Y004060D01*
X017411Y004060D01*
X017439Y004053D01*
X017464Y004038D01*
X017485Y004018D01*
X017499Y003993D01*
X017507Y003965D01*
X017507Y003822D01*
X017229Y003822D01*
X017229Y003764D01*
X017507Y003764D01*
X017507Y003621D01*
X017499Y003593D01*
X017485Y003568D01*
X017464Y003547D01*
X017439Y003533D01*
X017411Y003525D01*
X017229Y003525D01*
X017229Y003764D01*
X017171Y003764D01*
X017229Y003768D02*
X017823Y003768D01*
X017823Y003670D02*
X017507Y003670D01*
X017487Y003571D02*
X017823Y003571D01*
X017823Y003473D02*
X015200Y003473D01*
X015421Y003571D02*
X015479Y003571D01*
X015479Y003670D02*
X015421Y003670D01*
X015479Y003768D02*
X016021Y003768D01*
X016079Y003768D02*
X016571Y003768D01*
X016571Y003670D02*
X016629Y003670D01*
X016629Y003571D02*
X016571Y003571D01*
X016887Y003571D02*
X016913Y003571D01*
X017171Y003571D02*
X017229Y003571D01*
X017229Y003670D02*
X017171Y003670D01*
X017171Y003867D02*
X017229Y003867D01*
X017229Y003965D02*
X017171Y003965D01*
X017507Y003965D02*
X017823Y003965D01*
X017823Y003867D02*
X017507Y003867D01*
X017507Y004458D02*
X017823Y004458D01*
X017823Y004556D02*
X017507Y004556D01*
X017823Y004655D02*
X016749Y004655D01*
X016650Y004753D02*
X017823Y004753D01*
X017823Y004852D02*
X016946Y004852D01*
X017063Y004950D02*
X017823Y004950D01*
X017823Y005049D02*
X017095Y005049D01*
X017086Y005147D02*
X017340Y005147D01*
X017349Y005145D02*
X017321Y005153D01*
X017296Y005167D01*
X017276Y005187D01*
X017261Y005213D01*
X017254Y005241D01*
X017254Y005677D01*
X017550Y005677D01*
X017550Y005145D01*
X017349Y005145D01*
X017254Y005246D02*
X017207Y005246D01*
X017207Y005344D02*
X017254Y005344D01*
X017254Y005443D02*
X017207Y005443D01*
X017207Y005541D02*
X017254Y005541D01*
X017254Y005640D02*
X017207Y005640D01*
X017254Y005777D02*
X017550Y005777D01*
X017550Y006310D01*
X017349Y006310D01*
X017321Y006302D01*
X017296Y006288D01*
X017276Y006267D01*
X017261Y006242D01*
X017254Y006214D01*
X017254Y005777D01*
X017254Y005837D02*
X017207Y005837D01*
X017207Y005935D02*
X017254Y005935D01*
X017254Y006034D02*
X017207Y006034D01*
X017207Y006132D02*
X017254Y006132D01*
X017258Y006231D02*
X017191Y006231D01*
X017128Y006329D02*
X017823Y006329D01*
X017823Y006428D02*
X017713Y006428D01*
X017811Y006526D02*
X017823Y006526D01*
X017650Y006231D02*
X017550Y006231D01*
X017550Y006132D02*
X017650Y006132D01*
X017650Y006034D02*
X017550Y006034D01*
X017550Y005935D02*
X017650Y005935D01*
X017650Y005837D02*
X017550Y005837D01*
X017550Y005738D02*
X016710Y005738D01*
X016550Y005577D02*
X016550Y006177D01*
X016300Y006427D01*
X016300Y006943D01*
X016050Y007227D02*
X016700Y007227D01*
X016800Y007127D01*
X016800Y006777D01*
X016600Y006577D01*
X016885Y006312D02*
X017450Y006877D01*
X016815Y007512D01*
X016300Y007512D01*
X016050Y007227D02*
X015765Y006943D01*
X015750Y006943D01*
X015523Y006675D02*
X015992Y006675D01*
X016025Y006708D01*
X016058Y006675D01*
X016140Y006675D01*
X016140Y006361D01*
X016234Y006267D01*
X016249Y006252D01*
X016150Y006252D01*
X016150Y005877D01*
X016050Y005877D01*
X016050Y006252D01*
X015856Y006252D01*
X015828Y006245D01*
X015802Y006230D01*
X015800Y006228D01*
X015776Y006252D01*
X015471Y006252D01*
X015508Y006289D01*
X015545Y006379D01*
X015545Y006476D01*
X015508Y006566D01*
X015471Y006602D01*
X015508Y006639D01*
X015523Y006675D01*
X015494Y006625D02*
X016140Y006625D01*
X016140Y006526D02*
X015524Y006526D01*
X015545Y006428D02*
X016140Y006428D01*
X016172Y006329D02*
X015525Y006329D01*
X015797Y006231D02*
X015803Y006231D01*
X016050Y006231D02*
X016150Y006231D01*
X016150Y006132D02*
X016050Y006132D01*
X016050Y006034D02*
X016150Y006034D01*
X016150Y005935D02*
X016050Y005935D01*
X016050Y005738D02*
X016150Y005738D01*
X016150Y005640D02*
X016050Y005640D01*
X016050Y005541D02*
X016150Y005541D01*
X016150Y005443D02*
X016050Y005443D01*
X016416Y005443D02*
X016458Y005443D01*
X016484Y005417D02*
X016484Y005417D01*
X016551Y005344D02*
X015002Y005344D01*
X015002Y005246D02*
X016593Y005246D01*
X016614Y005147D02*
X015002Y005147D01*
X015002Y005443D02*
X015184Y005443D01*
X015160Y005541D02*
X014980Y005541D01*
X015002Y005640D02*
X015160Y005640D01*
X015150Y005738D02*
X015002Y005738D01*
X015002Y005837D02*
X015064Y005837D01*
X015250Y005877D02*
X015050Y006077D01*
X015050Y007227D01*
X015250Y007427D01*
X015700Y007527D02*
X015750Y007512D01*
X015750Y007527D01*
X016050Y007827D01*
X016800Y007827D01*
X016900Y007927D01*
X017450Y007927D01*
X017011Y008201D02*
X016800Y008201D01*
X016834Y008087D02*
X016734Y007987D01*
X016678Y007987D01*
X016695Y008029D01*
X016695Y008096D01*
X016966Y008367D01*
X017060Y008461D01*
X017060Y008944D01*
X016966Y009037D01*
X016610Y009394D01*
X016610Y009977D01*
X016889Y009977D01*
X016954Y010041D01*
X016954Y010045D01*
X016954Y010044D01*
X016968Y010019D01*
X016989Y009999D01*
X017014Y009984D01*
X017042Y009977D01*
X017126Y009977D01*
X017105Y009926D01*
X017105Y009829D01*
X017128Y009772D01*
X017101Y009772D01*
X017011Y009735D01*
X016942Y009666D01*
X016905Y009576D01*
X016905Y009479D01*
X016942Y009389D01*
X017011Y009320D01*
X017101Y009282D01*
X017199Y009282D01*
X017289Y009320D01*
X017358Y009389D01*
X017395Y009479D01*
X017395Y009576D01*
X017372Y009632D01*
X017399Y009632D01*
X017489Y009670D01*
X017558Y009739D01*
X017595Y009829D01*
X017595Y009926D01*
X017574Y009977D01*
X017823Y009977D01*
X017823Y008267D01*
X017659Y008431D01*
X017241Y008431D01*
X016946Y008136D01*
X016946Y008087D01*
X016834Y008087D01*
X016946Y008102D02*
X016701Y008102D01*
X016685Y008004D02*
X016750Y008004D01*
X016450Y008077D02*
X016900Y008527D01*
X016900Y008877D01*
X016450Y009327D01*
X016450Y010677D01*
X016610Y009974D02*
X017125Y009974D01*
X017105Y009875D02*
X016610Y009875D01*
X016610Y009777D02*
X017126Y009777D01*
X016955Y009678D02*
X016610Y009678D01*
X016610Y009580D02*
X016907Y009580D01*
X016905Y009481D02*
X016610Y009481D01*
X016621Y009383D02*
X016948Y009383D01*
X017096Y009284D02*
X016719Y009284D01*
X016818Y009186D02*
X017823Y009186D01*
X017823Y009284D02*
X017204Y009284D01*
X017352Y009383D02*
X017823Y009383D01*
X017823Y009481D02*
X017395Y009481D01*
X017393Y009580D02*
X017823Y009580D01*
X017823Y009678D02*
X017497Y009678D01*
X017574Y009777D02*
X017823Y009777D01*
X017823Y009875D02*
X017595Y009875D01*
X017575Y009974D02*
X017823Y009974D01*
X017700Y010277D02*
X017450Y010627D01*
X017450Y010677D01*
X015635Y009593D02*
X015535Y009577D01*
X015635Y009593D02*
X016550Y008677D01*
X016898Y008299D02*
X017110Y008299D01*
X017208Y008398D02*
X016997Y008398D01*
X017060Y008496D02*
X017823Y008496D01*
X017823Y008398D02*
X017692Y008398D01*
X017790Y008299D02*
X017823Y008299D01*
X017823Y008595D02*
X017060Y008595D01*
X017060Y008693D02*
X017823Y008693D01*
X017823Y008792D02*
X017060Y008792D01*
X017060Y008890D02*
X017823Y008890D01*
X017823Y008989D02*
X017015Y008989D01*
X016916Y009087D02*
X017823Y009087D01*
X015250Y009827D02*
X015150Y009927D01*
X014700Y009927D01*
X014450Y010177D01*
X014450Y010677D01*
X013450Y010677D02*
X013400Y010727D01*
X012946Y010762D02*
X012283Y010762D01*
X012382Y010663D02*
X012946Y010663D01*
X012946Y010565D02*
X012445Y010565D01*
X012486Y010466D02*
X012946Y010466D01*
X012946Y010368D02*
X012527Y010368D01*
X012541Y010269D02*
X012946Y010269D01*
X012946Y010171D02*
X012541Y010171D01*
X012541Y010072D02*
X012946Y010072D01*
X013240Y009974D02*
X012521Y009974D01*
X012481Y009875D02*
X013240Y009875D01*
X013205Y009777D02*
X012440Y009777D01*
X012369Y009678D02*
X013205Y009678D01*
X013227Y009580D02*
X013053Y009580D01*
X013133Y009481D02*
X013167Y009481D01*
X013167Y009383D02*
X013133Y009383D01*
X012894Y009383D02*
X012837Y009383D01*
X012837Y009481D02*
X012894Y009481D01*
X012894Y009580D02*
X012837Y009580D01*
X012677Y009580D02*
X012271Y009580D01*
X012136Y009481D02*
X012598Y009481D01*
X012837Y009186D02*
X012894Y009186D01*
X012894Y009087D02*
X012837Y009087D01*
X012837Y008989D02*
X012894Y008989D01*
X013656Y008989D02*
X015080Y008989D01*
X015080Y009087D02*
X013702Y009087D01*
X013702Y009186D02*
X015080Y009186D01*
X014748Y009284D02*
X013702Y009284D01*
X013702Y009383D02*
X014698Y009383D01*
X014698Y009481D02*
X013702Y009481D01*
X013435Y009693D02*
X013450Y009727D01*
X014850Y009727D01*
X014850Y009677D01*
X014950Y009577D01*
X015043Y008693D02*
X014335Y008693D01*
X014340Y008595D02*
X015018Y008595D01*
X014446Y008299D02*
X014340Y008299D01*
X014340Y008201D02*
X014347Y008201D01*
X014600Y007827D02*
X014300Y007527D01*
X014600Y007827D02*
X014700Y007827D01*
X013721Y007905D02*
X013656Y007905D01*
X013900Y007027D02*
X014100Y007027D01*
X014150Y006977D01*
X014155Y006977D02*
X014150Y006727D01*
X014422Y006822D02*
X014478Y006822D01*
X014478Y006920D02*
X014422Y006920D01*
X014422Y007019D02*
X014478Y007019D01*
X014155Y006977D02*
X014155Y006427D01*
X014745Y006427D02*
X014745Y005882D01*
X014750Y005877D01*
X014695Y005782D02*
X014700Y005777D01*
X015250Y005877D02*
X015500Y005827D01*
X016550Y005577D02*
X016700Y005427D01*
X016900Y005443D01*
X016850Y005393D01*
X016850Y005077D01*
X016605Y005049D02*
X016455Y005049D01*
X016564Y004950D02*
X016637Y004950D01*
X016595Y004852D02*
X016754Y004852D01*
X016600Y004377D02*
X016600Y004362D01*
X016050Y004362D02*
X015450Y004362D01*
X015450Y004727D01*
X015500Y004777D01*
X015143Y004556D02*
X015002Y004556D01*
X014820Y004359D02*
X013934Y004359D01*
X013926Y004379D02*
X013801Y004504D01*
X013638Y004571D01*
X013462Y004571D01*
X013299Y004504D01*
X013174Y004379D01*
X013106Y004216D01*
X013106Y004039D01*
X013174Y003876D01*
X013299Y003751D01*
X013462Y003684D01*
X013638Y003684D01*
X013801Y003751D01*
X013926Y003876D01*
X013994Y004039D01*
X013994Y004216D01*
X013926Y004379D01*
X013898Y004458D02*
X013847Y004458D01*
X013898Y004556D02*
X013674Y004556D01*
X013898Y004655D02*
X013004Y004655D01*
X013102Y004753D02*
X013651Y004753D01*
X013537Y004852D02*
X013201Y004852D01*
X013299Y004950D02*
X013505Y004950D01*
X013750Y004977D02*
X013750Y005127D01*
X013600Y005277D01*
X013600Y005293D01*
X013415Y005293D01*
X012415Y004293D01*
X012400Y004243D01*
X012400Y004227D02*
X011900Y004227D01*
X011815Y004143D01*
X011515Y004143D01*
X011400Y004077D01*
X011652Y003983D02*
X011882Y003983D01*
X011966Y004067D01*
X012093Y004067D01*
X012093Y004040D01*
X012158Y003975D01*
X012551Y003975D01*
X012492Y003916D01*
X012455Y003826D01*
X012455Y003729D01*
X012476Y003677D01*
X010450Y003677D01*
X010450Y004727D01*
X010548Y004727D01*
X010548Y004706D01*
X010787Y004706D01*
X010787Y004649D01*
X010844Y004649D01*
X010844Y004706D01*
X011083Y004706D01*
X011083Y004827D01*
X011117Y004827D01*
X011117Y004435D01*
X011175Y004377D01*
X011117Y004320D01*
X011117Y003835D01*
X011182Y003771D01*
X011588Y003771D01*
X011652Y003835D01*
X011652Y003983D01*
X011652Y003965D02*
X012542Y003965D01*
X012472Y003867D02*
X011652Y003867D01*
X011963Y004064D02*
X012093Y004064D01*
X012455Y003768D02*
X010450Y003768D01*
X010450Y003867D02*
X010548Y003867D01*
X010548Y003866D02*
X010555Y003838D01*
X010570Y003813D01*
X010590Y003793D01*
X010615Y003778D01*
X010643Y003771D01*
X010787Y003771D01*
X010787Y004049D01*
X010844Y004049D01*
X010844Y004106D01*
X011083Y004106D01*
X011083Y004289D01*
X011075Y004317D01*
X011061Y004342D01*
X011040Y004362D01*
X011015Y004377D01*
X011013Y004377D01*
X011015Y004378D01*
X011040Y004393D01*
X011061Y004413D01*
X011075Y004438D01*
X011083Y004466D01*
X011083Y004649D01*
X010844Y004649D01*
X010844Y004371D01*
X010844Y004106D01*
X010787Y004106D01*
X010787Y004649D01*
X010548Y004649D01*
X010548Y004466D01*
X010555Y004438D01*
X010570Y004413D01*
X010590Y004393D01*
X010615Y004378D01*
X010618Y004377D01*
X010615Y004377D01*
X010590Y004362D01*
X010570Y004342D01*
X010555Y004317D01*
X010548Y004289D01*
X010548Y004106D01*
X010787Y004106D01*
X010787Y004049D01*
X010548Y004049D01*
X010548Y003866D01*
X010548Y003965D02*
X010450Y003965D01*
X010450Y004064D02*
X010787Y004064D01*
X010844Y004064D02*
X011117Y004064D01*
X011083Y004049D02*
X010844Y004049D01*
X010844Y003771D01*
X010987Y003771D01*
X011015Y003778D01*
X011040Y003793D01*
X011061Y003813D01*
X011075Y003838D01*
X011083Y003866D01*
X011083Y004049D01*
X011083Y003965D02*
X011117Y003965D01*
X011117Y003867D02*
X011083Y003867D01*
X010844Y003867D02*
X010787Y003867D01*
X010787Y003965D02*
X010844Y003965D01*
X010844Y004162D02*
X010787Y004162D01*
X010787Y004261D02*
X010844Y004261D01*
X010844Y004359D02*
X010787Y004359D01*
X010787Y004458D02*
X010844Y004458D01*
X010844Y004556D02*
X010787Y004556D01*
X010787Y004655D02*
X010450Y004655D01*
X010450Y004556D02*
X010548Y004556D01*
X010550Y004458D02*
X010450Y004458D01*
X010450Y004359D02*
X010587Y004359D01*
X010548Y004261D02*
X010450Y004261D01*
X010450Y004162D02*
X010548Y004162D01*
X011043Y004359D02*
X011157Y004359D01*
X011117Y004261D02*
X011083Y004261D01*
X011083Y004162D02*
X011117Y004162D01*
X011117Y004458D02*
X011081Y004458D01*
X011083Y004556D02*
X011117Y004556D01*
X011117Y004655D02*
X010844Y004655D01*
X011083Y004753D02*
X011117Y004753D01*
X011385Y004677D02*
X011385Y004527D01*
X011950Y004527D01*
X011855Y004753D02*
X011652Y004753D01*
X011652Y004852D02*
X012093Y004852D01*
X012093Y004841D02*
X012371Y004841D01*
X012371Y005080D01*
X012189Y005080D01*
X012161Y005072D01*
X012136Y005058D01*
X012115Y005037D01*
X012101Y005012D01*
X012093Y004984D01*
X012093Y004841D01*
X012093Y004753D02*
X012045Y004753D01*
X012093Y004950D02*
X011622Y004950D01*
X011652Y005049D02*
X012127Y005049D01*
X012371Y005049D02*
X012429Y005049D01*
X012429Y004950D02*
X012371Y004950D01*
X012371Y004852D02*
X012429Y004852D01*
X012429Y004753D02*
X012371Y004753D01*
X012371Y004655D02*
X012429Y004655D01*
X012429Y004556D02*
X012371Y004556D01*
X012708Y004359D02*
X013166Y004359D01*
X013125Y004261D02*
X012707Y004261D01*
X012707Y004162D02*
X013106Y004162D01*
X013106Y004064D02*
X012707Y004064D01*
X012858Y003965D02*
X013137Y003965D01*
X013183Y003867D02*
X012928Y003867D01*
X012945Y003768D02*
X013282Y003768D01*
X013818Y003768D02*
X014430Y003768D01*
X014405Y003867D02*
X013917Y003867D01*
X013963Y003965D02*
X014421Y003965D01*
X014490Y004064D02*
X013994Y004064D01*
X013994Y004162D02*
X014750Y004162D01*
X014750Y004261D02*
X013975Y004261D01*
X014165Y004677D02*
X014165Y004793D01*
X014350Y004977D01*
X014165Y005212D01*
X014165Y005277D01*
X013919Y005541D02*
X013861Y005541D01*
X013888Y005640D02*
X013898Y005640D01*
X013339Y005541D02*
X011100Y005541D01*
X011093Y005738D02*
X010600Y005738D01*
X010600Y005837D02*
X011055Y005837D01*
X011059Y005935D02*
X010600Y005935D01*
X010600Y006034D02*
X011110Y006034D01*
X011410Y006132D02*
X010600Y006132D01*
X010600Y006231D02*
X011398Y006231D01*
X011398Y006329D02*
X010600Y006329D01*
X010600Y006428D02*
X011398Y006428D01*
X011398Y006526D02*
X010600Y006526D01*
X010600Y006625D02*
X011398Y006625D01*
X011409Y006723D02*
X010600Y006723D01*
X010600Y006822D02*
X011398Y006822D01*
X011398Y006920D02*
X010507Y006920D01*
X010450Y007019D02*
X011398Y007019D01*
X011398Y007117D02*
X010450Y007117D01*
X010450Y007216D02*
X011398Y007216D01*
X011538Y007413D02*
X010450Y007413D01*
X010450Y007511D02*
X010671Y007511D01*
X010648Y007610D02*
X010450Y007610D01*
X010450Y007708D02*
X010648Y007708D01*
X010648Y007807D02*
X010450Y007807D01*
X010450Y007905D02*
X010648Y007905D01*
X010648Y008004D02*
X010450Y008004D01*
X010450Y008102D02*
X010755Y008102D01*
X010750Y008201D02*
X010450Y008201D01*
X010450Y008299D02*
X010652Y008299D01*
X010553Y008398D02*
X010450Y008398D01*
X010450Y008496D02*
X010455Y008496D01*
X010250Y008496D02*
X009850Y008496D01*
X009850Y008398D02*
X010250Y008398D01*
X010250Y008299D02*
X009850Y008299D01*
X009850Y008201D02*
X010250Y008201D01*
X010250Y008102D02*
X009850Y008102D01*
X009850Y008004D02*
X010250Y008004D01*
X010048Y008367D02*
X010037Y008377D01*
X009485Y008377D01*
X009850Y008595D02*
X010250Y008595D01*
X010450Y009077D02*
X006800Y009077D01*
X006785Y009093D02*
X006685Y009227D01*
X006115Y009227D02*
X006015Y009227D01*
X006015Y008377D01*
X006005Y008367D01*
X005452Y008367D01*
X005146Y008398D02*
X004300Y008398D01*
X004300Y008496D02*
X005146Y008496D01*
X005146Y008577D02*
X004754Y008577D01*
X004754Y008697D01*
X004747Y008725D01*
X004733Y008750D01*
X004712Y008770D01*
X004687Y008785D01*
X004659Y008792D01*
X004496Y008792D01*
X004399Y008792D01*
X004300Y008792D01*
X004300Y008998D01*
X004281Y009017D01*
X005169Y009017D01*
X005150Y008998D01*
X005150Y008732D01*
X005146Y008728D01*
X005146Y008577D01*
X005146Y008595D02*
X004300Y008595D01*
X004300Y008693D02*
X005146Y008693D01*
X004754Y008693D01*
X004754Y008595D02*
X005146Y008595D01*
X005150Y008792D02*
X004660Y008792D01*
X004496Y008792D02*
X004496Y008577D01*
X004399Y008577D01*
X004399Y008792D01*
X004399Y008693D02*
X004496Y008693D01*
X004496Y008595D02*
X004399Y008595D01*
X004448Y008367D02*
X003895Y008367D01*
X003885Y008377D01*
X004300Y008299D02*
X005146Y008299D01*
X005146Y008201D02*
X004300Y008201D01*
X004300Y008102D02*
X005146Y008102D01*
X005148Y008004D02*
X004300Y008004D01*
X004300Y008890D02*
X005150Y008890D01*
X005150Y008989D02*
X004300Y008989D01*
X003850Y009177D02*
X005450Y009177D01*
X005296Y009678D02*
X005725Y009678D01*
X005516Y010269D02*
X005301Y010269D01*
X005307Y010368D02*
X005468Y010368D01*
X005029Y010368D02*
X004971Y010368D01*
X004971Y010269D02*
X005029Y010269D01*
X004699Y010269D02*
X003968Y010269D01*
X003968Y010368D02*
X004693Y010368D01*
X004693Y010565D02*
X003968Y010565D01*
X003968Y010663D02*
X004701Y010663D01*
X004622Y010762D02*
X004862Y010762D01*
X004855Y010860D02*
X004685Y010860D01*
X003875Y010959D02*
X003803Y010959D01*
X003875Y011057D02*
X001645Y011057D01*
X001645Y011156D02*
X003875Y011156D01*
X003180Y010959D02*
X003080Y010959D01*
X003080Y010860D02*
X003180Y010860D01*
X003180Y010762D02*
X003080Y010762D01*
X003080Y010663D02*
X003180Y010663D01*
X003180Y010565D02*
X003080Y010565D01*
X003080Y010269D02*
X003180Y010269D01*
X003180Y010171D02*
X003080Y010171D01*
X003080Y010072D02*
X003180Y010072D01*
X003180Y009974D02*
X003080Y009974D01*
X003870Y009678D02*
X003875Y009678D01*
X004685Y009678D02*
X004704Y009678D01*
X004890Y009887D02*
X004900Y009877D01*
X004644Y010171D02*
X010959Y010171D01*
X010959Y010269D02*
X010386Y010269D01*
X010423Y010368D02*
X010973Y010368D01*
X011014Y010466D02*
X010423Y010466D01*
X010423Y010565D02*
X011055Y010565D01*
X011118Y010663D02*
X009930Y010663D01*
X009930Y010565D02*
X009830Y010565D01*
X009830Y010663D02*
X009163Y010663D01*
X009163Y010565D02*
X009337Y010565D01*
X009337Y010466D02*
X009163Y010466D01*
X009163Y010368D02*
X009337Y010368D01*
X009374Y010269D02*
X009126Y010269D01*
X009163Y010762D02*
X009337Y010762D01*
X009337Y010860D02*
X009163Y010860D01*
X009830Y010466D02*
X009930Y010466D01*
X009930Y010368D02*
X009830Y010368D01*
X009830Y010269D02*
X009930Y010269D01*
X010423Y010762D02*
X011217Y010762D01*
X011333Y010860D02*
X010423Y010860D01*
X012167Y010860D02*
X012946Y010860D01*
X010915Y008262D02*
X010915Y007777D01*
X011183Y007708D02*
X011217Y007708D01*
X011217Y007610D02*
X011183Y007610D01*
X011159Y007511D02*
X011241Y007511D01*
X011811Y007314D02*
X010450Y007314D01*
X008800Y007227D02*
X008750Y007177D01*
X011385Y005227D02*
X011385Y004677D01*
X011652Y005147D02*
X012568Y005147D01*
X012555Y005246D02*
X011652Y005246D01*
X011652Y005344D02*
X012583Y005344D01*
X012680Y005443D02*
X011652Y005443D01*
X011933Y005640D02*
X011967Y005640D01*
X011967Y005738D02*
X011933Y005738D01*
X012502Y005738D02*
X013293Y005738D01*
X013293Y005837D02*
X012502Y005837D01*
X012502Y005935D02*
X013290Y005935D01*
X013290Y006034D02*
X012502Y006034D01*
X012490Y006132D02*
X013290Y006132D01*
X013290Y006231D02*
X012502Y006231D01*
X012250Y006477D02*
X012800Y006477D01*
X012998Y006329D02*
X013290Y006329D01*
X013290Y006428D02*
X013045Y006428D01*
X013045Y006526D02*
X013290Y006526D01*
X013290Y006625D02*
X012999Y006625D01*
X013022Y006723D02*
X013278Y006723D01*
X013179Y006822D02*
X013045Y006822D01*
X012800Y006827D02*
X012250Y006827D01*
X012235Y006977D01*
X012250Y006477D02*
X012235Y006427D01*
X012502Y005640D02*
X013312Y005640D01*
X013293Y005443D02*
X012920Y005443D01*
X013017Y005344D02*
X013241Y005344D01*
X013255Y005359D02*
X013255Y005359D01*
X013142Y005246D02*
X013045Y005246D01*
X013032Y005147D02*
X013044Y005147D01*
X012847Y004950D02*
X012707Y004950D01*
X012707Y004852D02*
X012748Y004852D01*
X012905Y004556D02*
X013426Y004556D01*
X013253Y004458D02*
X012807Y004458D01*
X013849Y004753D02*
X013898Y004753D01*
X014449Y004753D02*
X014467Y004753D01*
X015737Y003571D02*
X015763Y003571D01*
X016021Y003571D02*
X016079Y003571D01*
X016079Y003670D02*
X016021Y003670D01*
X017550Y005147D02*
X017650Y005147D01*
X017650Y005246D02*
X017550Y005246D01*
X017550Y005344D02*
X017650Y005344D01*
X017650Y005443D02*
X017550Y005443D01*
X017550Y005541D02*
X017650Y005541D01*
X017650Y005640D02*
X017550Y005640D01*
X016900Y006012D02*
X016885Y006012D01*
X016885Y006312D01*
D29*
X009950Y006327D03*
X009150Y006327D03*
X009150Y005727D03*
X008550Y005277D03*
X009100Y004927D03*
X008550Y004577D03*
X009100Y003927D03*
X009750Y004577D03*
X009750Y005277D03*
X008350Y006327D03*
X007150Y006327D03*
X006350Y006327D03*
X006350Y005677D03*
X006900Y005277D03*
X006350Y004927D03*
X006900Y004577D03*
X006650Y003977D03*
X006200Y003977D03*
X005750Y003977D03*
X005750Y004577D03*
X005750Y005277D03*
X005550Y006327D03*
X004400Y006327D03*
X003550Y006327D03*
X003550Y005727D03*
X003000Y005227D03*
X003550Y004927D03*
X003000Y004577D03*
X002850Y004027D03*
X003300Y004027D03*
X003750Y004027D03*
X004100Y004577D03*
X004150Y005227D03*
X002700Y006327D03*
X002050Y004127D03*
X002050Y003577D03*
X001150Y008977D03*
X001150Y009377D03*
X002100Y010077D03*
X002100Y010527D03*
X002100Y010977D03*
D30*
X002450Y006677D02*
X004850Y006677D01*
X004850Y004027D01*
X004850Y003969D01*
X004777Y003969D01*
X004707Y003899D01*
X004707Y003406D01*
X004726Y003387D01*
X004672Y003387D01*
X004685Y003409D01*
X004693Y003440D01*
X004693Y003634D01*
X004434Y003634D01*
X004434Y003671D01*
X004693Y003671D01*
X004693Y003865D01*
X004685Y003896D01*
X004669Y003923D01*
X004647Y003945D01*
X004619Y003961D01*
X004589Y003969D01*
X004434Y003969D01*
X004434Y003671D01*
X004397Y003671D01*
X004397Y003969D01*
X004242Y003969D01*
X004212Y003961D01*
X004184Y003945D01*
X004162Y003923D01*
X004146Y003896D01*
X004138Y003865D01*
X004138Y003671D01*
X004397Y003671D01*
X004397Y003634D01*
X004138Y003634D01*
X004138Y003440D01*
X004146Y003409D01*
X004159Y003387D01*
X002450Y003387D01*
X002450Y004027D01*
X004850Y004027D01*
X002450Y004027D01*
X002450Y006677D01*
X002450Y006614D02*
X004850Y006614D01*
X004850Y006495D02*
X002450Y006495D01*
X002450Y006377D02*
X004850Y006377D01*
X004850Y006258D02*
X002450Y006258D01*
X002450Y006140D02*
X004850Y006140D01*
X004850Y006021D02*
X002450Y006021D01*
X002450Y005903D02*
X004850Y005903D01*
X004850Y005784D02*
X002450Y005784D01*
X002450Y005666D02*
X004850Y005666D01*
X004850Y005547D02*
X002450Y005547D01*
X002450Y005429D02*
X004850Y005429D01*
X004850Y005310D02*
X002450Y005310D01*
X002450Y005192D02*
X004850Y005192D01*
X004850Y005073D02*
X002450Y005073D01*
X002450Y004955D02*
X004850Y004955D01*
X004850Y004836D02*
X002450Y004836D01*
X002450Y004718D02*
X004850Y004718D01*
X004850Y004599D02*
X002450Y004599D01*
X002450Y004481D02*
X004850Y004481D01*
X004850Y004362D02*
X002450Y004362D01*
X002450Y004244D02*
X004850Y004244D01*
X004850Y004125D02*
X002450Y004125D01*
X002450Y004007D02*
X004850Y004007D01*
X004707Y003888D02*
X004687Y003888D01*
X004693Y003770D02*
X004707Y003770D01*
X004707Y003651D02*
X004434Y003651D01*
X004397Y003651D02*
X002450Y003651D01*
X002450Y003533D02*
X004138Y003533D01*
X004145Y003414D02*
X002450Y003414D01*
X002450Y003770D02*
X004138Y003770D01*
X004144Y003888D02*
X002450Y003888D01*
X004397Y003888D02*
X004434Y003888D01*
X004434Y003770D02*
X004397Y003770D01*
X004693Y003533D02*
X004707Y003533D01*
X004707Y003414D02*
X004686Y003414D01*
X005262Y003592D02*
X005262Y003899D01*
X005192Y003969D01*
X005050Y003969D01*
X005050Y004027D01*
X006941Y004027D01*
X006937Y004023D01*
X006921Y003996D01*
X006913Y003965D01*
X006913Y003771D01*
X007172Y003771D01*
X007172Y003734D01*
X006913Y003734D01*
X006913Y003540D01*
X006914Y003537D01*
X005316Y003537D01*
X005262Y003592D01*
X005262Y003651D02*
X006913Y003651D01*
X006913Y003888D02*
X005262Y003888D01*
X005262Y003770D02*
X007172Y003770D01*
X007209Y003770D02*
X007482Y003770D01*
X007468Y003771D02*
X007468Y003965D01*
X007460Y003996D01*
X007444Y004023D01*
X007439Y004027D01*
X007511Y004027D01*
X007482Y003999D01*
X007482Y003537D01*
X007467Y003537D01*
X007468Y003540D01*
X007468Y003734D01*
X007209Y003734D01*
X007209Y003771D01*
X007468Y003771D01*
X007468Y003888D02*
X007482Y003888D01*
X007490Y004007D02*
X007453Y004007D01*
X007511Y004027D02*
X005050Y004027D01*
X005050Y006677D01*
X007550Y006677D01*
X007550Y004067D01*
X007511Y004027D01*
X007550Y004125D02*
X005050Y004125D01*
X005050Y004007D02*
X006928Y004007D01*
X007468Y003651D02*
X007482Y003651D01*
X007750Y004069D02*
X007750Y006677D01*
X010210Y006677D01*
X010245Y006642D01*
X010245Y005442D01*
X010250Y005437D01*
X010250Y004027D01*
X008009Y004027D01*
X008037Y003999D01*
X008037Y003687D01*
X010250Y003687D01*
X010250Y004027D01*
X008009Y004027D01*
X007967Y004069D01*
X007750Y004069D01*
X007750Y004125D02*
X010250Y004125D01*
X010250Y004007D02*
X008029Y004007D01*
X008037Y003888D02*
X010250Y003888D01*
X010250Y003770D02*
X008037Y003770D01*
X007750Y004244D02*
X010250Y004244D01*
X010250Y004362D02*
X007750Y004362D01*
X007750Y004481D02*
X010250Y004481D01*
X010250Y004599D02*
X007750Y004599D01*
X007750Y004718D02*
X010250Y004718D01*
X010250Y004836D02*
X007750Y004836D01*
X007750Y004955D02*
X010250Y004955D01*
X010250Y005073D02*
X007750Y005073D01*
X007750Y005192D02*
X010250Y005192D01*
X010250Y005310D02*
X007750Y005310D01*
X007750Y005429D02*
X010250Y005429D01*
X010245Y005547D02*
X007750Y005547D01*
X007750Y005666D02*
X010245Y005666D01*
X010245Y005784D02*
X007750Y005784D01*
X007750Y005903D02*
X010245Y005903D01*
X010245Y006021D02*
X007750Y006021D01*
X007750Y006140D02*
X010245Y006140D01*
X010245Y006258D02*
X007750Y006258D01*
X007750Y006377D02*
X010245Y006377D01*
X010245Y006495D02*
X007750Y006495D01*
X007750Y006614D02*
X010245Y006614D01*
X012800Y008327D02*
X012900Y008327D01*
X012900Y008477D01*
X013950Y008227D02*
X014050Y008327D01*
X014000Y008327D02*
X013950Y008227D01*
X015250Y008127D02*
X015250Y007427D01*
X015250Y008127D02*
X015250Y009827D01*
X015600Y008327D02*
X015250Y008127D01*
X007550Y006614D02*
X005050Y006614D01*
X005050Y006495D02*
X007550Y006495D01*
X007550Y006377D02*
X005050Y006377D01*
X005050Y006258D02*
X007550Y006258D01*
X007550Y006140D02*
X005050Y006140D01*
X005050Y006021D02*
X007550Y006021D01*
X007550Y005903D02*
X005050Y005903D01*
X005050Y005784D02*
X007550Y005784D01*
X007550Y005666D02*
X005050Y005666D01*
X005050Y005547D02*
X007550Y005547D01*
X007550Y005429D02*
X005050Y005429D01*
X005050Y005310D02*
X007550Y005310D01*
X007550Y005192D02*
X005050Y005192D01*
X005050Y005073D02*
X007550Y005073D01*
X007550Y004955D02*
X005050Y004955D01*
X005050Y004836D02*
X007550Y004836D01*
X007550Y004718D02*
X005050Y004718D01*
X005050Y004599D02*
X007550Y004599D01*
X007550Y004481D02*
X005050Y004481D01*
X005050Y004362D02*
X007550Y004362D01*
X007550Y004244D02*
X005050Y004244D01*
D31*
X007700Y008677D03*
X007800Y009727D03*
X007450Y009877D03*
X009650Y009827D03*
X010650Y010677D03*
X012700Y010827D03*
X013450Y009727D03*
X014550Y009477D03*
X015700Y009077D03*
X016550Y008677D03*
X016450Y008077D03*
X015250Y007427D03*
X014850Y007477D03*
X014450Y007277D03*
X013900Y007027D03*
X013150Y007077D03*
X012800Y007177D03*
X012800Y006827D03*
X012800Y006477D03*
X013800Y006227D03*
X012800Y005227D03*
X012350Y005227D03*
X011950Y004527D03*
X012250Y003777D03*
X012700Y003777D03*
X013200Y004627D03*
X013750Y004977D03*
X014350Y004977D03*
X015500Y004777D03*
X016350Y004827D03*
X016850Y005077D03*
X017700Y005277D03*
X016600Y006577D03*
X015300Y006427D03*
X015300Y006777D03*
X014700Y007827D03*
X014700Y008227D03*
X014050Y008327D03*
X012900Y008477D03*
X012400Y008877D03*
X011950Y008577D03*
X010900Y007377D03*
X011300Y005877D03*
X014650Y003877D03*
X017150Y009527D03*
X017350Y009877D03*
X017700Y009827D03*
X005100Y010827D03*
X005000Y008827D03*
X002100Y008827D03*
D32*
X007710Y003768D02*
X007950Y003527D01*
X014800Y003527D01*
X014900Y003627D01*
X014900Y004227D01*
X015035Y004362D01*
X015450Y004362D01*
X015100Y004077D02*
X015050Y004027D01*
X015050Y003527D01*
X014900Y003377D01*
X005250Y003377D01*
X004985Y003643D01*
X004985Y003652D01*
X015100Y004077D02*
X016600Y004077D01*
X016600Y004362D01*
D33*
X010050Y007127D03*
X009850Y007527D03*
X009400Y007527D03*
X008950Y007527D03*
X008500Y007527D03*
X008700Y007127D03*
X009150Y007127D03*
X009600Y007127D03*
D34*
X002050Y007427D03*
X002050Y008127D03*
D35*
X004500Y011127D02*
X005685Y011127D01*
X005775Y011087D02*
X006625Y011087D01*
X006675Y011137D02*
X007490Y011137D01*
X007550Y011127D02*
X008650Y011127D01*
X013400Y011127D01*
X013450Y010677D02*
X013450Y009727D01*
X017700Y009827D02*
X017700Y010277D01*
X008620Y010627D02*
X008620Y011098D01*
D36*
X008650Y011127D01*
X007550Y011127D02*
X007550Y010777D01*
X006675Y011137D02*
X006625Y011087D01*
X005775Y011087D02*
X005685Y011127D01*
X004500Y011127D02*
X004390Y011068D01*
X004280Y011068D01*
X004280Y009887D02*
X003810Y009887D01*
X003610Y009687D01*
X002769Y009687D01*
X002460Y009377D01*
X002460Y009187D01*
X002100Y008827D01*
X004280Y009887D02*
X004890Y009887D01*
X013400Y010727D02*
X013400Y011127D01*
D37*
X001150Y009927D02*
X001150Y009377D01*
X001150Y008977D01*
D38*
X001050Y006027D03*
D39*
X001150Y009927D02*
X001200Y009927D01*
X001200Y009977D01*
M02*
