G75*
G70*
%OFA0B0*%
%FSLAX24Y24*%
%IPPOS*%
%LPD*%
%AMOC8*
5,1,8,0,0,1.08239X$1,22.5*
%
%ADD10R,0.1700X0.0700*%
%ADD11C,0.1261*%
%ADD12R,0.1450X0.2000*%
%ADD13R,0.0474X0.0395*%
%ADD14R,0.0395X0.0474*%
%ADD15R,0.0513X0.0710*%
%ADD16R,0.2206X0.2521*%
%ADD17R,0.0474X0.0710*%
%ADD18OC8,0.0749*%
%ADD19C,0.0749*%
%ADD20R,0.0946X0.0631*%
%ADD21C,0.0568*%
%ADD22R,0.0620X0.0413*%
%ADD23R,0.0867X0.1261*%
%ADD24OC8,0.0867*%
%ADD25R,0.0395X0.0395*%
%ADD26R,0.0540X0.0710*%
%ADD27R,0.0060X0.0720*%
%ADD28R,0.1025X0.0671*%
%ADD29R,0.0552X0.1025*%
%ADD30R,0.0671X0.1025*%
%ADD31C,0.0787*%
D10*
X013400Y008327D03*
D12*
X001575Y007627D03*
D13*
X005000Y009893D03*
X005000Y010462D03*
X005775Y010518D03*
X005775Y011087D03*
X006625Y011087D03*
X006625Y010518D03*
X013600Y005862D03*
X013600Y005293D03*
X012400Y004812D03*
X012400Y004243D03*
X015450Y004362D03*
X015450Y003793D03*
X016050Y003793D03*
X016600Y003793D03*
X017200Y003793D03*
X017200Y004362D03*
X016600Y004362D03*
X016050Y004362D03*
X016900Y005443D03*
X016900Y006012D03*
X016300Y006943D03*
X015750Y006943D03*
X015750Y007512D03*
X016300Y007512D03*
D14*
X004415Y003652D03*
X004985Y003652D03*
X007190Y003752D03*
X007760Y003752D03*
X010815Y004077D03*
X011385Y004077D03*
X011385Y004677D03*
X010815Y004677D03*
X010815Y005227D03*
X011385Y005227D03*
X011665Y005877D03*
X012235Y005877D03*
X012235Y006427D03*
X011665Y006427D03*
X011665Y006977D03*
X012235Y006977D03*
X011485Y007777D03*
X010915Y007777D03*
X012865Y009277D03*
X013435Y009277D03*
X014965Y009577D03*
X015535Y009577D03*
X014735Y005877D03*
X014165Y005877D03*
X014165Y005277D03*
X014735Y005277D03*
X014735Y004677D03*
X014165Y004677D03*
X006685Y009227D03*
X006115Y009227D03*
X003835Y009177D03*
X003265Y009177D03*
X002460Y009377D03*
X001890Y009377D03*
X001885Y006127D03*
X001315Y006127D03*
X001315Y005577D03*
X001885Y005577D03*
D15*
X003215Y008377D03*
X003885Y008377D03*
X006015Y008377D03*
X006685Y008377D03*
X008815Y008377D03*
X009485Y008377D03*
D16*
X009150Y005493D03*
X006350Y005493D03*
X003550Y005493D03*
D17*
X002652Y008367D03*
X004448Y008367D03*
X005452Y008367D03*
X007248Y008367D03*
X008252Y008367D03*
X010048Y008367D03*
D18*
X001200Y010977D03*
X001250Y003777D03*
D19*
X001250Y004777D03*
X001200Y009977D03*
D20*
X008620Y010627D03*
X009880Y010627D03*
D21*
X002646Y010666D02*
X002646Y010288D01*
X002646Y010666D02*
X003614Y010666D01*
X003614Y010288D01*
X002646Y010288D01*
D22*
X004282Y009887D03*
X004282Y011068D03*
D23*
X013450Y010677D03*
X014450Y010677D03*
X015450Y010677D03*
X016450Y010677D03*
X017450Y010677D03*
D24*
X017450Y007927D03*
X017450Y006877D03*
D25*
X014745Y006977D03*
X014155Y006977D03*
X014155Y006427D03*
X014745Y006427D03*
D26*
X015500Y005827D03*
X016100Y005827D03*
X014000Y008327D03*
X013400Y008327D03*
X012800Y008327D03*
D27*
X015800Y005827D03*
D28*
X015600Y008327D03*
D29*
X017600Y005727D03*
D30*
X007550Y010777D03*
D31*
X013550Y004127D03*
M02*
