G75*
G70*
%OFA0B0*%
%FSLAX24Y24*%
%IPPOS*%
%LPD*%
%AMOC8*
5,1,8,0,0,1.08239X$1,22.5*
%
%ADD10C,0.0000*%
%ADD11C,0.0070*%
%ADD12C,0.0080*%
%ADD13C,0.0050*%
%ADD14C,0.0060*%
%ADD15C,0.0110*%
D10*
X000700Y003177D02*
X000700Y011445D01*
X018023Y011445D01*
X018023Y003177D01*
X000700Y003177D01*
D11*
X011985Y008819D02*
X012095Y008709D01*
X012095Y008764D02*
X012095Y008599D01*
X011985Y008599D02*
X012315Y008599D01*
X012315Y008764D01*
X012260Y008819D01*
X012150Y008819D01*
X012095Y008764D01*
X012040Y008451D02*
X012260Y008451D01*
X012315Y008396D01*
X012315Y008231D01*
X011985Y008231D01*
X011985Y008396D01*
X012040Y008451D01*
X011985Y008083D02*
X012205Y008083D01*
X012315Y007973D01*
X012205Y007862D01*
X011985Y007862D01*
X012150Y007862D02*
X012150Y008083D01*
X012572Y007738D02*
X012572Y007683D01*
X012627Y007628D01*
X012572Y007573D01*
X012572Y007518D01*
X012627Y007462D01*
X012737Y007462D01*
X012792Y007518D01*
X012682Y007628D02*
X012627Y007628D01*
X012572Y007738D02*
X012627Y007793D01*
X012737Y007793D01*
X012792Y007738D01*
X012940Y007628D02*
X013160Y007628D01*
X013308Y007683D02*
X013308Y007738D01*
X013363Y007793D01*
X013473Y007793D01*
X013528Y007738D01*
X013676Y007628D02*
X013897Y007628D01*
X014045Y007462D02*
X014265Y007462D01*
X014155Y007462D02*
X014155Y007793D01*
X014265Y007683D01*
X013528Y007462D02*
X013308Y007683D01*
X013308Y007462D02*
X013528Y007462D01*
X015358Y005293D02*
X015578Y005293D01*
X015578Y005128D01*
X015468Y005183D01*
X015413Y005183D01*
X015358Y005128D01*
X015358Y005018D01*
X015413Y004962D01*
X015523Y004962D01*
X015578Y005018D01*
X015726Y005128D02*
X015947Y005128D01*
X016095Y005128D02*
X016315Y005128D01*
X016150Y005293D01*
X016150Y004962D01*
X007665Y007329D02*
X007548Y007212D01*
X007407Y007271D02*
X007349Y007212D01*
X007174Y007212D01*
X007020Y007212D02*
X006904Y007329D01*
X006904Y007446D01*
X007020Y007563D01*
X007174Y007446D02*
X007349Y007446D01*
X007407Y007388D01*
X007407Y007271D01*
X007665Y007329D02*
X007665Y007446D01*
X007548Y007563D01*
X006376Y007504D02*
X006318Y007563D01*
X006201Y007563D01*
X006142Y007504D01*
X006142Y007446D01*
X006376Y007212D01*
X006142Y007212D01*
X005989Y007271D02*
X005756Y007504D01*
X005756Y007271D01*
X005814Y007212D01*
X005931Y007212D01*
X005989Y007271D01*
X005989Y007504D01*
X005931Y007563D01*
X005814Y007563D01*
X005756Y007504D01*
X005602Y007446D02*
X005486Y007563D01*
X005486Y007212D01*
X005602Y007212D02*
X005369Y007212D01*
X005216Y007271D02*
X004982Y007504D01*
X004982Y007271D01*
X005041Y007212D01*
X005157Y007212D01*
X005216Y007271D01*
X005216Y007504D01*
X005157Y007563D01*
X005041Y007563D01*
X004982Y007504D01*
X004442Y007563D02*
X004442Y007212D01*
X004209Y007212D02*
X004209Y007563D01*
X004209Y007388D02*
X004442Y007388D01*
X004056Y007271D02*
X004056Y007212D01*
X003997Y007212D01*
X003997Y007271D01*
X004056Y007271D01*
X003862Y007212D02*
X003687Y007212D01*
X003629Y007271D01*
X003629Y007329D01*
X003687Y007388D01*
X003862Y007388D01*
X003862Y007563D02*
X003687Y007563D01*
X003629Y007504D01*
X003629Y007446D01*
X003687Y007388D01*
X003475Y007446D02*
X003475Y007271D01*
X003417Y007212D01*
X003242Y007212D01*
X003242Y007446D01*
X003089Y007388D02*
X003030Y007329D01*
X002914Y007329D01*
X002855Y007271D01*
X002914Y007212D01*
X003089Y007212D01*
X003089Y007388D02*
X003030Y007446D01*
X002855Y007446D01*
X002702Y007388D02*
X002644Y007329D01*
X002527Y007329D01*
X002468Y007271D01*
X002527Y007212D01*
X002702Y007212D01*
X002702Y007388D02*
X002644Y007446D01*
X002468Y007446D01*
X003862Y007563D02*
X003862Y007212D01*
D12*
X001880Y004868D02*
X001880Y004588D01*
X001740Y004728D02*
X002020Y004728D01*
X001750Y003948D02*
X001750Y003667D01*
X007079Y008967D02*
X007289Y008967D01*
X007360Y009038D01*
X007360Y009178D01*
X007289Y009248D01*
X007079Y009248D01*
X007540Y009318D02*
X007540Y009038D01*
X007610Y008967D01*
X007750Y008967D01*
X007820Y009038D01*
X007540Y009318D01*
X007610Y009388D01*
X007750Y009388D01*
X007820Y009318D01*
X007820Y009038D01*
X007980Y009038D02*
X007980Y008967D01*
X008050Y008967D01*
X008050Y009038D01*
X007980Y009038D01*
X008230Y008967D02*
X008511Y008967D01*
X008230Y009248D01*
X008230Y009318D01*
X008300Y009388D01*
X008440Y009388D01*
X008511Y009318D01*
X009208Y009388D02*
X009208Y008967D01*
X009278Y008967D02*
X009138Y008967D01*
X009451Y009248D02*
X009521Y009248D01*
X009662Y009108D01*
X009662Y009248D02*
X009662Y008967D01*
X009828Y008967D02*
X009898Y009038D01*
X009898Y009318D01*
X009968Y009248D02*
X009828Y009248D01*
X010149Y009318D02*
X010219Y009388D01*
X010359Y009388D01*
X010429Y009318D01*
X010429Y009038D01*
X010359Y008967D01*
X010219Y008967D01*
X010149Y009038D01*
X010609Y009178D02*
X010889Y009178D01*
X011069Y008967D02*
X011350Y008967D01*
X011350Y009388D01*
X011530Y009318D02*
X011530Y009248D01*
X011600Y009178D01*
X011810Y009178D01*
X011810Y009388D02*
X011600Y009388D01*
X011530Y009318D01*
X011600Y009178D02*
X011530Y009108D01*
X011530Y009038D01*
X011600Y008967D01*
X011810Y008967D01*
X011810Y009388D01*
X009278Y009388D02*
X009208Y009388D01*
X015109Y009238D02*
X015109Y008817D01*
X015389Y008817D02*
X015389Y009238D01*
X015249Y009098D01*
X015109Y009238D01*
X015569Y009168D02*
X015569Y009028D01*
X015639Y008958D01*
X015850Y008958D01*
X015850Y008817D02*
X015850Y009238D01*
X015639Y009238D01*
X015569Y009168D01*
X016030Y009168D02*
X016030Y009028D01*
X016100Y008958D01*
X016310Y008958D01*
X016310Y008817D02*
X016310Y009238D01*
X016100Y009238D01*
X016030Y009168D01*
X016700Y008138D02*
X016840Y008138D01*
X016910Y008068D01*
X016910Y007788D01*
X016840Y007717D01*
X016700Y007717D01*
X016630Y007788D01*
X016630Y008068D02*
X016700Y008138D01*
X016700Y007138D02*
X016910Y007138D01*
X016910Y006717D01*
X016700Y006717D01*
X016630Y006788D01*
X016630Y007068D01*
X016700Y007138D01*
X001920Y009828D02*
X001640Y009828D01*
X001780Y009968D02*
X001780Y009688D01*
X001700Y010817D02*
X001700Y011098D01*
D13*
X015072Y006578D02*
X015072Y006533D01*
X015117Y006488D01*
X015207Y006488D01*
X015252Y006533D01*
X015252Y006578D01*
X015207Y006623D01*
X015117Y006623D01*
X015072Y006578D01*
X015117Y006488D02*
X015072Y006443D01*
X015072Y006398D01*
X015117Y006352D01*
X015207Y006352D01*
X015252Y006398D01*
X015252Y006443D01*
X015207Y006488D01*
X015366Y006488D02*
X015546Y006488D01*
X015661Y006488D02*
X015706Y006533D01*
X015751Y006533D01*
X015841Y006488D01*
X015841Y006623D01*
X015661Y006623D01*
X015661Y006488D02*
X015661Y006398D01*
X015706Y006352D01*
X015796Y006352D01*
X015841Y006398D01*
X015956Y006352D02*
X016046Y006443D01*
X016001Y006443D02*
X016136Y006443D01*
X016136Y006352D02*
X016136Y006623D01*
X016001Y006623D01*
X015956Y006578D01*
X015956Y006488D01*
X016001Y006443D01*
X016250Y006398D02*
X016250Y006578D01*
X016295Y006623D01*
X016430Y006623D01*
X016430Y006352D01*
X016295Y006352D01*
X016250Y006398D01*
X016545Y006352D02*
X016545Y006533D01*
X016635Y006623D01*
X016725Y006533D01*
X016725Y006352D01*
X016725Y006488D02*
X016545Y006488D01*
D14*
X016400Y006227D02*
X016400Y005427D01*
X015200Y005427D01*
X015200Y006227D01*
X016400Y006227D01*
X017600Y004984D02*
X017600Y004849D01*
X017645Y004804D01*
X017735Y004804D01*
X017780Y004849D01*
X017780Y004984D01*
X017870Y004984D02*
X017600Y004984D01*
X017600Y004680D02*
X017735Y004680D01*
X017780Y004635D01*
X017780Y004500D01*
X017600Y004500D01*
X017600Y004376D02*
X017600Y004241D01*
X017645Y004196D01*
X017735Y004196D01*
X017780Y004241D01*
X017780Y004376D01*
X017555Y004376D01*
X017510Y004331D01*
X017510Y004286D01*
X015120Y003698D02*
X015120Y003407D01*
X014927Y003407D02*
X014927Y003698D01*
X015023Y003601D01*
X015120Y003698D01*
X014798Y003601D02*
X014749Y003601D01*
X014749Y003407D01*
X014701Y003407D02*
X014798Y003407D01*
X014583Y003407D02*
X014583Y003698D01*
X014749Y003698D02*
X014749Y003746D01*
X014583Y003504D02*
X014438Y003407D01*
X014314Y003407D02*
X014314Y003601D01*
X014218Y003601D02*
X014169Y003601D01*
X014218Y003601D02*
X014314Y003504D01*
X014438Y003601D02*
X014583Y003504D01*
X014046Y003456D02*
X013997Y003407D01*
X013901Y003407D01*
X013852Y003456D01*
X013852Y003553D01*
X013901Y003601D01*
X013997Y003601D01*
X014046Y003553D01*
X014046Y003456D01*
X013723Y003504D02*
X013530Y003698D01*
X013723Y003698D02*
X013723Y003407D01*
X013675Y003553D02*
X013530Y003407D01*
X013401Y003456D02*
X013353Y003407D01*
X013256Y003407D01*
X013208Y003456D01*
X013208Y003553D01*
X013256Y003601D01*
X013353Y003601D01*
X013401Y003553D01*
X013401Y003456D01*
X013079Y003407D02*
X012934Y003407D01*
X012885Y003456D01*
X012885Y003553D01*
X012934Y003601D01*
X013079Y003601D01*
X013079Y003311D01*
X012708Y003456D02*
X012708Y003649D01*
X012660Y003601D02*
X012757Y003601D01*
X012708Y003456D02*
X012660Y003407D01*
X012542Y003456D02*
X012542Y003553D01*
X012493Y003601D01*
X012397Y003601D01*
X012348Y003553D01*
X012348Y003504D01*
X012542Y003504D01*
X012542Y003456D02*
X012493Y003407D01*
X012397Y003407D01*
X012220Y003407D02*
X012220Y003601D01*
X012220Y003504D02*
X012123Y003601D01*
X012074Y003601D01*
X011951Y003456D02*
X011903Y003456D01*
X011903Y003407D01*
X011951Y003407D01*
X011951Y003456D01*
X011790Y003456D02*
X011790Y003553D01*
X011741Y003601D01*
X011596Y003601D01*
X011596Y003698D02*
X011596Y003407D01*
X011741Y003407D01*
X011790Y003456D01*
X011468Y003456D02*
X011468Y003553D01*
X011419Y003601D01*
X011322Y003601D01*
X011274Y003553D01*
X011274Y003504D01*
X011468Y003504D01*
X011468Y003456D02*
X011419Y003407D01*
X011322Y003407D01*
X012500Y007927D02*
X014300Y007927D01*
X014300Y008727D01*
X012500Y008727D01*
X012500Y007927D01*
X007820Y009856D02*
X007772Y009807D01*
X007675Y009807D01*
X007627Y009856D01*
X007627Y009953D01*
X007675Y010001D01*
X007723Y010001D01*
X007820Y009953D01*
X007820Y010098D01*
X007627Y010098D01*
X007498Y010098D02*
X007498Y009904D01*
X007401Y009807D01*
X007304Y009904D01*
X007304Y010098D01*
D15*
X001829Y008778D02*
X001503Y008778D01*
M02*
