%
M48
M72
T01C0.0130
T02C0.0197
T03C0.0236
T04C0.0315
T05C0.0354
T06C0.0394
T07C0.1181
%
T01
X10900Y7377
X11950Y8577
X12400Y8877
X12900Y8477
X14050Y8327
X14700Y8227
X14700Y7827
X14850Y7477
X15250Y7427
X14450Y7277
X13900Y7027
X13150Y7077
X12800Y7177
X12800Y6827
X12800Y6477
X13800Y6227
X12800Y5227
X12350Y5227
X11950Y4527
X12250Y3777
X12700Y3777
X13200Y4627
X13750Y4977
X14350Y4977
X15500Y4777
X16350Y4827
X16850Y5077
X17700Y5277
X16600Y6577
X15300Y6427
X15300Y6777
X16450Y8077
X16550Y8677
X15700Y9077
X14550Y9477
X13450Y9727
X12700Y10827
X10650Y10677
X9650Y9827
X7800Y9727
X7450Y9877
X7700Y8677
X5000Y8827
X5100Y10827
X2100Y8827
X11300Y5877
X14650Y3877
X17150Y9527
X17350Y9877
X17700Y9827
T02
X1050Y6027
T03
X2050Y7427
X2050Y8127
T04
X2050Y3577
X2050Y4127
X2850Y4027
X3300Y4027
X3750Y4027
X4100Y4577
X3550Y4927
X3000Y5227
X3550Y5727
X3550Y6327
X2700Y6327
X4150Y5227
X4400Y6327
X5550Y6327
X6350Y6327
X6350Y5677
X6900Y5277
X6350Y4927
X6900Y4577
X6650Y3977
X6200Y3977
X5750Y3977
X5750Y4577
X5750Y5277
X7150Y6327
X8350Y6327
X9150Y6327
X9150Y5727
X8550Y5277
X9100Y4927
X8550Y4577
X9100Y3927
X9750Y4577
X9750Y5277
X9950Y6327
X3000Y4577
X1150Y8977
X1150Y9377
X2100Y10077
X2100Y10527
X2100Y10977
T05
X8500Y7527
X8950Y7527
X9400Y7527
X9600Y7127
X9150Y7127
X8700Y7127
X9850Y7527
X10050Y7127
T06
X17450Y6877
X17450Y7927
X1200Y9977
X1200Y10977
X1250Y4777
X1250Y3777
T07
X11750Y10177
M30
