G75*
G70*
%OFA0B0*%
%FSLAX24Y24*%
%IPPOS*%
%LPD*%
%AMOC8*
5,1,8,0,0,1.08239X$1,22.5*
%
%ADD10C,0.0591*%
%ADD11C,0.0472*%
%ADD12C,0.0100*%
%ADD13C,0.0270*%
%ADD14C,0.0531*%
%ADD15C,0.0376*%
%ADD16C,0.0337*%
D10*
X001250Y003777D03*
X001250Y004777D03*
X001200Y009977D03*
X001200Y010977D03*
X017450Y007927D03*
X017450Y006877D03*
D11*
X009950Y006327D03*
X009150Y006327D03*
X009150Y005727D03*
X008550Y005277D03*
X009100Y004927D03*
X008550Y004577D03*
X009100Y003927D03*
X009750Y004577D03*
X009750Y005277D03*
X008350Y006327D03*
X007150Y006327D03*
X006350Y006327D03*
X006350Y005677D03*
X006900Y005277D03*
X006350Y004927D03*
X006900Y004577D03*
X006650Y003977D03*
X006200Y003977D03*
X005750Y003977D03*
X005750Y004577D03*
X005750Y005277D03*
X005550Y006327D03*
X004400Y006327D03*
X003550Y006327D03*
X003550Y005727D03*
X003000Y005227D03*
X003550Y004927D03*
X003000Y004577D03*
X002850Y004027D03*
X003300Y004027D03*
X003750Y004027D03*
X004100Y004577D03*
X004150Y005227D03*
X002700Y006327D03*
X002050Y004127D03*
X002050Y003577D03*
X001150Y008977D03*
X001150Y009377D03*
X002100Y010077D03*
X002100Y010527D03*
X002100Y010977D03*
D12*
X000900Y004563D02*
X000900Y003377D01*
X002250Y003377D01*
X002250Y006927D01*
X008100Y006927D01*
X008100Y007677D01*
X008350Y007927D01*
X010000Y007927D01*
X010450Y007477D01*
X010450Y003377D01*
X017823Y003377D01*
X017823Y006719D01*
X017794Y006648D01*
X017680Y006534D01*
X017531Y006472D01*
X017369Y006472D01*
X017220Y006534D01*
X017106Y006648D01*
X017045Y006797D01*
X017045Y006958D01*
X017106Y007107D01*
X017220Y007221D01*
X017369Y007283D01*
X017531Y007283D01*
X017680Y007221D01*
X017794Y007107D01*
X017823Y007036D01*
X017823Y007769D01*
X017794Y007698D01*
X017680Y007584D01*
X017531Y007522D01*
X017369Y007522D01*
X017220Y007584D01*
X017127Y007678D01*
X017066Y007617D01*
X016910Y007461D01*
X016910Y006661D01*
X016845Y006596D01*
X016845Y006529D01*
X016808Y006439D01*
X016739Y006370D01*
X016649Y006332D01*
X016551Y006332D01*
X016461Y006370D01*
X016414Y006417D01*
X015816Y006417D01*
X015760Y006361D01*
X015760Y006111D01*
X015666Y006017D01*
X015266Y005617D01*
X014716Y005617D01*
X014321Y005222D01*
X014399Y005222D01*
X014489Y005185D01*
X014558Y005116D01*
X014595Y005026D01*
X014595Y004929D01*
X014558Y004839D01*
X014489Y004770D01*
X014399Y004732D01*
X014301Y004732D01*
X014211Y004770D01*
X014190Y004791D01*
X014116Y004717D01*
X014116Y004717D01*
X013966Y004567D01*
X013484Y004567D01*
X013240Y004811D01*
X013240Y005061D01*
X013234Y005067D01*
X012986Y005067D01*
X012939Y005020D01*
X012849Y004982D01*
X012751Y004982D01*
X012661Y005020D01*
X012592Y005089D01*
X012555Y005179D01*
X012555Y005276D01*
X012572Y005317D01*
X012216Y005317D01*
X012160Y005261D01*
X012160Y005244D01*
X012266Y005137D01*
X012466Y005137D01*
X013066Y004537D01*
X014216Y004537D01*
X014631Y004122D01*
X014699Y004122D01*
X014789Y004085D01*
X014858Y004016D01*
X014895Y003926D01*
X014895Y003829D01*
X014858Y003739D01*
X014789Y003670D01*
X017823Y003670D01*
X017823Y003768D02*
X014870Y003768D01*
X014895Y003867D02*
X017823Y003867D01*
X017823Y003965D02*
X014879Y003965D01*
X014810Y004064D02*
X017823Y004064D01*
X017823Y004162D02*
X014591Y004162D01*
X014493Y004261D02*
X017823Y004261D01*
X017823Y004359D02*
X014394Y004359D01*
X014296Y004458D02*
X017823Y004458D01*
X017823Y004556D02*
X015607Y004556D01*
X015639Y004570D02*
X015708Y004639D01*
X015745Y004729D01*
X015745Y004826D01*
X015708Y004916D01*
X015639Y004985D01*
X015549Y005022D01*
X015451Y005022D01*
X015361Y004985D01*
X015292Y004916D01*
X015255Y004826D01*
X015255Y004729D01*
X015292Y004639D01*
X015361Y004570D01*
X015451Y004532D01*
X015549Y004532D01*
X015639Y004570D01*
X015714Y004655D02*
X016176Y004655D01*
X016142Y004689D02*
X016211Y004620D01*
X016301Y004582D01*
X016399Y004582D01*
X016489Y004620D01*
X016558Y004689D01*
X016595Y004779D01*
X016595Y004876D01*
X016558Y004966D01*
X016489Y005035D01*
X016399Y005072D01*
X016301Y005072D01*
X016211Y005035D01*
X016142Y004966D01*
X016105Y004876D01*
X016105Y004779D01*
X016142Y004689D01*
X016115Y004753D02*
X015745Y004753D01*
X015734Y004852D02*
X016105Y004852D01*
X016136Y004950D02*
X015673Y004950D01*
X015327Y004950D02*
X014595Y004950D01*
X014586Y005049D02*
X016245Y005049D01*
X016455Y005049D02*
X016605Y005049D01*
X016605Y005029D02*
X016642Y004939D01*
X016711Y004870D01*
X016801Y004832D01*
X016899Y004832D01*
X016989Y004870D01*
X017058Y004939D01*
X017095Y005029D01*
X017095Y005126D01*
X017058Y005216D01*
X016989Y005285D01*
X016899Y005322D01*
X016801Y005322D01*
X016711Y005285D01*
X016642Y005216D01*
X016605Y005126D01*
X016605Y005029D01*
X016637Y004950D02*
X016564Y004950D01*
X016595Y004852D02*
X016754Y004852D01*
X016946Y004852D02*
X017823Y004852D01*
X017823Y004950D02*
X017063Y004950D01*
X017095Y005049D02*
X017823Y005049D01*
X017823Y005147D02*
X017086Y005147D01*
X017028Y005246D02*
X017823Y005246D01*
X017823Y005344D02*
X014443Y005344D01*
X014345Y005246D02*
X016672Y005246D01*
X016614Y005147D02*
X014526Y005147D01*
X014542Y005443D02*
X017823Y005443D01*
X017823Y005541D02*
X014640Y005541D01*
X014650Y005777D02*
X015200Y005777D01*
X015600Y006177D01*
X015600Y006427D01*
X015750Y006577D01*
X016600Y006577D01*
X016750Y006727D01*
X016750Y007527D01*
X017000Y007777D01*
X017000Y009377D01*
X017150Y009527D01*
X017199Y009282D02*
X017289Y009320D01*
X017358Y009389D01*
X017395Y009479D01*
X017395Y009576D01*
X017372Y009632D01*
X017399Y009632D01*
X017489Y009670D01*
X017558Y009739D01*
X017595Y009829D01*
X017595Y009926D01*
X017558Y010016D01*
X017489Y010085D01*
X017399Y010122D01*
X017301Y010122D01*
X017211Y010085D01*
X017164Y010037D01*
X016984Y010037D01*
X016734Y009787D01*
X016640Y009694D01*
X016640Y008905D01*
X016599Y008922D01*
X016501Y008922D01*
X016411Y008885D01*
X016342Y008816D01*
X016305Y008726D01*
X016305Y008629D01*
X016342Y008539D01*
X016411Y008470D01*
X016501Y008432D01*
X016599Y008432D01*
X016640Y008450D01*
X016640Y008234D01*
X016589Y008285D01*
X016499Y008322D01*
X016401Y008322D01*
X016311Y008285D01*
X016242Y008216D01*
X016205Y008126D01*
X016205Y008029D01*
X016242Y007939D01*
X016311Y007870D01*
X016401Y007832D01*
X016499Y007832D01*
X016550Y007854D01*
X016434Y007737D01*
X016340Y007644D01*
X016340Y007044D01*
X016234Y006937D01*
X015486Y006937D01*
X015439Y006985D01*
X015349Y007022D01*
X015251Y007022D01*
X015161Y006985D01*
X015092Y006916D01*
X015055Y006826D01*
X015055Y006729D01*
X015092Y006639D01*
X015129Y006602D01*
X015092Y006566D01*
X015055Y006476D01*
X015055Y006379D01*
X015092Y006289D01*
X015114Y006267D01*
X015034Y006187D01*
X014610Y006187D01*
X014610Y007091D01*
X014658Y007139D01*
X014695Y007229D01*
X014695Y007326D01*
X014658Y007416D01*
X014589Y007485D01*
X014499Y007522D01*
X014401Y007522D01*
X014311Y007485D01*
X014242Y007416D01*
X014205Y007326D01*
X014205Y007229D01*
X014242Y007139D01*
X014290Y007091D01*
X014290Y006294D01*
X013634Y005637D01*
X012084Y005637D01*
X011934Y005487D01*
X011840Y005394D01*
X011840Y005111D01*
X011934Y005017D01*
X012040Y004911D01*
X012134Y004817D01*
X012334Y004817D01*
X012840Y004311D01*
X012934Y004217D01*
X014084Y004217D01*
X014405Y003896D01*
X014405Y003829D01*
X014442Y003739D01*
X014511Y003670D01*
X012921Y003670D01*
X012908Y003639D02*
X012945Y003729D01*
X012945Y003826D01*
X012908Y003916D01*
X012839Y003985D01*
X012749Y004022D01*
X012681Y004022D01*
X012366Y004337D01*
X012106Y004337D01*
X012158Y004389D01*
X012195Y004479D01*
X012195Y004576D01*
X012158Y004666D01*
X012089Y004735D01*
X011999Y004772D01*
X011901Y004772D01*
X011811Y004735D01*
X011742Y004666D01*
X011705Y004576D01*
X011705Y004479D01*
X011742Y004389D01*
X011794Y004337D01*
X011516Y004337D01*
X010910Y004944D01*
X010910Y007194D01*
X010810Y007294D01*
X010810Y007461D01*
X010816Y007467D01*
X010910Y007561D01*
X010910Y007841D01*
X010990Y007761D01*
X010990Y006761D01*
X011084Y006667D01*
X011140Y006611D01*
X011140Y006064D01*
X011092Y006016D01*
X011055Y005926D01*
X011055Y005829D01*
X011092Y005739D01*
X011161Y005670D01*
X011251Y005632D01*
X011349Y005632D01*
X011439Y005670D01*
X011508Y005739D01*
X011545Y005829D01*
X011545Y005926D01*
X011508Y006016D01*
X011460Y006064D01*
X011460Y006267D01*
X012384Y006267D01*
X012540Y006111D01*
X012634Y006017D01*
X012966Y006017D01*
X013166Y006217D01*
X013260Y006311D01*
X013260Y006511D01*
X013516Y006767D01*
X013610Y006861D01*
X013610Y008411D01*
X014116Y008917D01*
X015514Y008917D01*
X015561Y008870D01*
X015651Y008832D01*
X015749Y008832D01*
X015839Y008870D01*
X015908Y008939D01*
X015945Y009029D01*
X015945Y009126D01*
X015908Y009216D01*
X015839Y009285D01*
X015749Y009322D01*
X015651Y009322D01*
X015561Y009285D01*
X015514Y009237D01*
X013984Y009237D01*
X013890Y009144D01*
X013410Y008664D01*
X013410Y009461D01*
X013431Y009482D01*
X013499Y009482D01*
X013589Y009520D01*
X013658Y009589D01*
X013695Y009679D01*
X013695Y009776D01*
X013658Y009866D01*
X013589Y009935D01*
X013499Y009972D01*
X013401Y009972D01*
X013311Y009935D01*
X013242Y009866D01*
X013205Y009776D01*
X013205Y009709D01*
X013090Y009594D01*
X013090Y008634D01*
X013039Y008685D01*
X012949Y008722D01*
X012851Y008722D01*
X012761Y008685D01*
X012692Y008616D01*
X012655Y008526D01*
X012655Y008429D01*
X012692Y008339D01*
X012761Y008270D01*
X012851Y008232D01*
X012949Y008232D01*
X013039Y008270D01*
X013090Y008321D01*
X013090Y007318D01*
X013019Y007288D01*
X013008Y007316D01*
X012939Y007385D01*
X012849Y007422D01*
X012751Y007422D01*
X012661Y007385D01*
X012592Y007316D01*
X012555Y007226D01*
X012555Y007129D01*
X012592Y007039D01*
X012629Y007002D01*
X012614Y006987D01*
X011766Y006987D01*
X011710Y007044D01*
X011710Y008394D01*
X011616Y008487D01*
X009816Y010287D01*
X009484Y010287D01*
X009390Y010194D01*
X009084Y009887D01*
X007986Y009887D01*
X007939Y009935D01*
X007849Y009972D01*
X007751Y009972D01*
X007661Y009935D01*
X007592Y009866D01*
X007555Y009776D01*
X007555Y009679D01*
X007572Y009637D01*
X006516Y009637D01*
X005345Y010809D01*
X005345Y010876D01*
X005308Y010966D01*
X005239Y011035D01*
X005149Y011072D01*
X005051Y011072D01*
X004961Y011035D01*
X004892Y010966D01*
X004855Y010876D01*
X004855Y010779D01*
X004892Y010689D01*
X004961Y010620D01*
X005051Y010582D01*
X005119Y010582D01*
X006264Y009437D01*
X002484Y009437D01*
X002119Y009072D01*
X002051Y009072D01*
X001961Y009035D01*
X001892Y008966D01*
X001855Y008876D01*
X001855Y008779D01*
X001892Y008689D01*
X001961Y008620D01*
X002051Y008582D01*
X002149Y008582D01*
X002239Y008620D01*
X002308Y008689D01*
X002345Y008779D01*
X002345Y008846D01*
X002616Y009117D01*
X009284Y009117D01*
X010590Y007811D01*
X010590Y007694D01*
X010490Y007594D01*
X010490Y007161D01*
X010584Y007067D01*
X010590Y007061D01*
X010590Y004811D01*
X010684Y004717D01*
X011384Y004017D01*
X012234Y004017D01*
X012455Y003796D01*
X012455Y003729D01*
X012492Y003639D01*
X012561Y003570D01*
X012651Y003532D01*
X012749Y003532D01*
X012839Y003570D01*
X012908Y003639D01*
X012840Y003571D02*
X017823Y003571D01*
X017823Y003473D02*
X010450Y003473D01*
X010450Y003571D02*
X012560Y003571D01*
X012479Y003670D02*
X010450Y003670D01*
X010450Y003768D02*
X012455Y003768D01*
X012384Y003867D02*
X010450Y003867D01*
X010450Y003965D02*
X012286Y003965D01*
X012300Y004177D02*
X011450Y004177D01*
X010750Y004877D01*
X010750Y007127D01*
X010650Y007227D01*
X010650Y007527D01*
X010750Y007627D01*
X010750Y007877D01*
X009350Y009277D01*
X002550Y009277D01*
X002100Y008827D01*
X002179Y008595D02*
X004762Y008595D01*
X004750Y008607D02*
X004779Y008577D01*
X004821Y008577D01*
X005221Y008577D01*
X005250Y008607D01*
X005250Y009048D01*
X005221Y009077D01*
X004779Y009077D01*
X004750Y009048D01*
X004750Y008607D01*
X004750Y008693D02*
X002310Y008693D01*
X002345Y008792D02*
X004750Y008792D01*
X004750Y008890D02*
X002389Y008890D01*
X002488Y008989D02*
X004750Y008989D01*
X005250Y008989D02*
X009412Y008989D01*
X009314Y009087D02*
X002586Y009087D01*
X002331Y009284D02*
X001486Y009284D01*
X001496Y009309D02*
X001444Y009181D01*
X001440Y009177D01*
X001444Y009174D01*
X001496Y009046D01*
X001496Y008909D01*
X001444Y008781D01*
X001346Y008684D01*
X001219Y008631D01*
X001081Y008631D01*
X000954Y008684D01*
X000900Y008738D01*
X000900Y006267D01*
X000995Y006306D01*
X001105Y006306D01*
X001208Y006264D01*
X001286Y006185D01*
X001328Y006083D01*
X001328Y005972D01*
X001286Y005870D01*
X001208Y005791D01*
X001105Y005749D01*
X000995Y005749D01*
X000900Y005788D01*
X000900Y004992D01*
X000906Y005007D01*
X001020Y005121D01*
X001169Y005183D01*
X001331Y005183D01*
X001480Y005121D01*
X001594Y005007D01*
X001655Y004858D01*
X001655Y004697D01*
X001594Y004548D01*
X001480Y004434D01*
X001331Y004372D01*
X001169Y004372D01*
X001020Y004434D01*
X000906Y004548D01*
X000900Y004563D01*
X000900Y004556D02*
X000903Y004556D01*
X000900Y004458D02*
X000996Y004458D01*
X000900Y004359D02*
X002250Y004359D01*
X002250Y004261D02*
X000900Y004261D01*
X000900Y004162D02*
X002250Y004162D01*
X002250Y004064D02*
X000900Y004064D01*
X000900Y003965D02*
X002250Y003965D01*
X002250Y003867D02*
X000900Y003867D01*
X000900Y003768D02*
X002250Y003768D01*
X002250Y003670D02*
X000900Y003670D01*
X000900Y003571D02*
X002250Y003571D01*
X002250Y003473D02*
X000900Y003473D01*
X001504Y004458D02*
X002250Y004458D01*
X002250Y004556D02*
X001597Y004556D01*
X001638Y004655D02*
X002250Y004655D01*
X002250Y004753D02*
X001655Y004753D01*
X001655Y004852D02*
X002250Y004852D01*
X002250Y004950D02*
X001617Y004950D01*
X001552Y005049D02*
X002250Y005049D01*
X002250Y005147D02*
X001416Y005147D01*
X001084Y005147D02*
X000900Y005147D01*
X000900Y005049D02*
X000948Y005049D01*
X000900Y005246D02*
X002250Y005246D01*
X002250Y005344D02*
X000900Y005344D01*
X000900Y005443D02*
X002250Y005443D01*
X002250Y005541D02*
X000900Y005541D01*
X000900Y005640D02*
X002250Y005640D01*
X002250Y005738D02*
X000900Y005738D01*
X001253Y005837D02*
X002250Y005837D01*
X002250Y005935D02*
X001313Y005935D01*
X001328Y006034D02*
X002250Y006034D01*
X002250Y006132D02*
X001308Y006132D01*
X001240Y006231D02*
X002250Y006231D01*
X002250Y006329D02*
X000900Y006329D01*
X000900Y006428D02*
X002250Y006428D01*
X002250Y006526D02*
X000900Y006526D01*
X000900Y006625D02*
X002250Y006625D01*
X002250Y006723D02*
X000900Y006723D01*
X000900Y006822D02*
X002250Y006822D01*
X002250Y006920D02*
X000900Y006920D01*
X000900Y007019D02*
X008100Y007019D01*
X008100Y007117D02*
X000900Y007117D01*
X000900Y007216D02*
X008100Y007216D01*
X008100Y007314D02*
X000900Y007314D01*
X000900Y007413D02*
X008100Y007413D01*
X008100Y007511D02*
X000900Y007511D01*
X000900Y007610D02*
X008100Y007610D01*
X008131Y007708D02*
X000900Y007708D01*
X000900Y007807D02*
X008230Y007807D01*
X008328Y007905D02*
X000900Y007905D01*
X000900Y008004D02*
X010397Y008004D01*
X010299Y008102D02*
X000900Y008102D01*
X000900Y008201D02*
X010200Y008201D01*
X010102Y008299D02*
X000900Y008299D01*
X000900Y008398D02*
X010003Y008398D01*
X009905Y008496D02*
X007950Y008496D01*
X007950Y008457D02*
X007950Y008898D01*
X007921Y008927D01*
X007479Y008927D01*
X007450Y008898D01*
X007450Y008457D01*
X007479Y008427D01*
X007521Y008427D01*
X007921Y008427D01*
X007950Y008457D01*
X007950Y008595D02*
X009806Y008595D01*
X009708Y008693D02*
X007950Y008693D01*
X007950Y008792D02*
X009609Y008792D01*
X009511Y008890D02*
X007950Y008890D01*
X007450Y008890D02*
X005250Y008890D01*
X005250Y008792D02*
X007450Y008792D01*
X007450Y008693D02*
X005250Y008693D01*
X005238Y008595D02*
X007450Y008595D01*
X007450Y008496D02*
X000900Y008496D01*
X000900Y008595D02*
X002021Y008595D01*
X001890Y008693D02*
X001356Y008693D01*
X001448Y008792D02*
X001855Y008792D01*
X001861Y008890D02*
X001489Y008890D01*
X001496Y008989D02*
X001915Y008989D01*
X002134Y009087D02*
X001479Y009087D01*
X001445Y009186D02*
X002232Y009186D01*
X002429Y009383D02*
X001496Y009383D01*
X001496Y009446D02*
X001496Y009309D01*
X001496Y009446D02*
X001444Y009574D01*
X001397Y009620D01*
X001430Y009634D01*
X001544Y009748D01*
X001605Y009897D01*
X001605Y010058D01*
X001544Y010207D01*
X001430Y010321D01*
X001281Y010383D01*
X001119Y010383D01*
X000970Y010321D01*
X000900Y010251D01*
X000900Y011245D01*
X017823Y011245D01*
X017823Y008086D01*
X017794Y008157D01*
X017680Y008271D01*
X017531Y008333D01*
X017369Y008333D01*
X017220Y008271D01*
X017160Y008211D01*
X017160Y009282D01*
X017199Y009282D01*
X017204Y009284D02*
X017823Y009284D01*
X017823Y009186D02*
X017160Y009186D01*
X017160Y009087D02*
X017823Y009087D01*
X017823Y008989D02*
X017160Y008989D01*
X017160Y008890D02*
X017823Y008890D01*
X017823Y008792D02*
X017160Y008792D01*
X017160Y008693D02*
X017823Y008693D01*
X017823Y008595D02*
X017160Y008595D01*
X017160Y008496D02*
X017823Y008496D01*
X017823Y008398D02*
X017160Y008398D01*
X017160Y008299D02*
X017289Y008299D01*
X017611Y008299D02*
X017823Y008299D01*
X017823Y008201D02*
X017750Y008201D01*
X017816Y008102D02*
X017823Y008102D01*
X017798Y007708D02*
X017823Y007708D01*
X017823Y007610D02*
X017706Y007610D01*
X017823Y007511D02*
X016960Y007511D01*
X016910Y007413D02*
X017823Y007413D01*
X017823Y007314D02*
X016910Y007314D01*
X016910Y007216D02*
X017215Y007216D01*
X017117Y007117D02*
X016910Y007117D01*
X016910Y007019D02*
X017070Y007019D01*
X017045Y006920D02*
X016910Y006920D01*
X016910Y006822D02*
X017045Y006822D01*
X017075Y006723D02*
X016910Y006723D01*
X016874Y006625D02*
X017129Y006625D01*
X017238Y006526D02*
X016844Y006526D01*
X016797Y006428D02*
X017823Y006428D01*
X017823Y006526D02*
X017662Y006526D01*
X017771Y006625D02*
X017823Y006625D01*
X017823Y006329D02*
X015760Y006329D01*
X015760Y006231D02*
X017823Y006231D01*
X017823Y006132D02*
X015760Y006132D01*
X015683Y006034D02*
X017823Y006034D01*
X017823Y005935D02*
X015584Y005935D01*
X015486Y005837D02*
X017823Y005837D01*
X017823Y005738D02*
X015387Y005738D01*
X015289Y005640D02*
X017823Y005640D01*
X017823Y004753D02*
X016585Y004753D01*
X016524Y004655D02*
X017823Y004655D01*
X015393Y004556D02*
X013047Y004556D01*
X012949Y004655D02*
X013396Y004655D01*
X013298Y004753D02*
X012850Y004753D01*
X012752Y004852D02*
X013240Y004852D01*
X013240Y004950D02*
X012653Y004950D01*
X012632Y005049D02*
X012555Y005049D01*
X012568Y005147D02*
X012256Y005147D01*
X012160Y005246D02*
X012555Y005246D01*
X012800Y005227D02*
X013300Y005227D01*
X013400Y005127D01*
X013400Y004877D01*
X013550Y004727D01*
X013900Y004727D01*
X014050Y004877D01*
X014050Y005177D01*
X014650Y005777D01*
X014550Y006027D02*
X015100Y006027D01*
X015300Y006227D01*
X015300Y006427D01*
X015106Y006625D02*
X014610Y006625D01*
X014610Y006723D02*
X015057Y006723D01*
X015055Y006822D02*
X014610Y006822D01*
X014610Y006920D02*
X015097Y006920D01*
X015243Y007019D02*
X014610Y007019D01*
X014636Y007117D02*
X016340Y007117D01*
X016340Y007216D02*
X015380Y007216D01*
X015389Y007220D02*
X015458Y007289D01*
X015495Y007379D01*
X015495Y007476D01*
X015458Y007566D01*
X015389Y007635D01*
X015299Y007672D01*
X015201Y007672D01*
X015111Y007635D01*
X015042Y007566D01*
X015005Y007476D01*
X015005Y007379D01*
X015042Y007289D01*
X015111Y007220D01*
X015201Y007182D01*
X015299Y007182D01*
X015389Y007220D01*
X015468Y007314D02*
X016340Y007314D01*
X016340Y007413D02*
X015495Y007413D01*
X015480Y007511D02*
X016340Y007511D01*
X016340Y007610D02*
X015414Y007610D01*
X015086Y007610D02*
X014815Y007610D01*
X014839Y007620D02*
X014908Y007689D01*
X014945Y007779D01*
X014945Y007876D01*
X014908Y007966D01*
X014846Y008027D01*
X014908Y008089D01*
X014945Y008179D01*
X014945Y008276D01*
X014908Y008366D01*
X014839Y008435D01*
X014749Y008472D01*
X014651Y008472D01*
X014561Y008435D01*
X014492Y008366D01*
X014455Y008276D01*
X014455Y008179D01*
X014492Y008089D01*
X014554Y008027D01*
X014492Y007966D01*
X014455Y007876D01*
X014455Y007779D01*
X014492Y007689D01*
X014561Y007620D01*
X014651Y007582D01*
X014749Y007582D01*
X014839Y007620D01*
X014916Y007708D02*
X016405Y007708D01*
X016503Y007807D02*
X014945Y007807D01*
X014933Y007905D02*
X016276Y007905D01*
X016215Y008004D02*
X014870Y008004D01*
X014913Y008102D02*
X016205Y008102D01*
X016236Y008201D02*
X014945Y008201D01*
X014935Y008299D02*
X016346Y008299D01*
X016385Y008496D02*
X014227Y008496D01*
X014258Y008466D02*
X014189Y008535D01*
X014099Y008572D01*
X014001Y008572D01*
X013911Y008535D01*
X013842Y008466D01*
X013805Y008376D01*
X013805Y008279D01*
X013842Y008189D01*
X013911Y008120D01*
X014001Y008082D01*
X014099Y008082D01*
X014189Y008120D01*
X014258Y008189D01*
X014295Y008279D01*
X014295Y008376D01*
X014258Y008466D01*
X014286Y008398D02*
X014524Y008398D01*
X014465Y008299D02*
X014295Y008299D01*
X014263Y008201D02*
X014455Y008201D01*
X014487Y008102D02*
X014147Y008102D01*
X013953Y008102D02*
X013610Y008102D01*
X013610Y008004D02*
X014530Y008004D01*
X014467Y007905D02*
X013610Y007905D01*
X013610Y007807D02*
X014455Y007807D01*
X014484Y007708D02*
X013610Y007708D01*
X013610Y007610D02*
X014585Y007610D01*
X014525Y007511D02*
X015020Y007511D01*
X015005Y007413D02*
X014659Y007413D01*
X014695Y007314D02*
X015032Y007314D01*
X015120Y007216D02*
X014690Y007216D01*
X014450Y007277D02*
X014450Y006227D01*
X013700Y005477D01*
X012150Y005477D01*
X012000Y005327D01*
X012000Y005177D01*
X012200Y004977D01*
X012400Y004977D01*
X013000Y004377D01*
X014150Y004377D01*
X014650Y003877D01*
X014405Y003867D02*
X012928Y003867D01*
X012945Y003768D02*
X014430Y003768D01*
X014511Y003670D02*
X014601Y003632D01*
X014699Y003632D01*
X014789Y003670D01*
X014336Y003965D02*
X012858Y003965D01*
X012640Y004064D02*
X014237Y004064D01*
X014139Y004162D02*
X012541Y004162D01*
X012443Y004261D02*
X012890Y004261D01*
X012792Y004359D02*
X012128Y004359D01*
X012186Y004458D02*
X012693Y004458D01*
X012595Y004556D02*
X012195Y004556D01*
X012162Y004655D02*
X012496Y004655D01*
X012398Y004753D02*
X012045Y004753D01*
X012099Y004852D02*
X011002Y004852D01*
X010910Y004950D02*
X012001Y004950D01*
X012040Y004911D02*
X012040Y004911D01*
X011934Y005017D02*
X011934Y005017D01*
X011902Y005049D02*
X010910Y005049D01*
X010910Y005147D02*
X011840Y005147D01*
X011840Y005246D02*
X010910Y005246D01*
X010910Y005344D02*
X011840Y005344D01*
X011889Y005443D02*
X010910Y005443D01*
X010910Y005541D02*
X011988Y005541D01*
X011507Y005738D02*
X013735Y005738D01*
X013636Y005640D02*
X011367Y005640D01*
X011233Y005640D02*
X010910Y005640D01*
X010910Y005738D02*
X011093Y005738D01*
X011055Y005837D02*
X010910Y005837D01*
X010910Y005935D02*
X011059Y005935D01*
X011110Y006034D02*
X010910Y006034D01*
X010910Y006132D02*
X011140Y006132D01*
X011140Y006231D02*
X010910Y006231D01*
X010910Y006329D02*
X011140Y006329D01*
X011140Y006428D02*
X010910Y006428D01*
X010910Y006526D02*
X011140Y006526D01*
X011126Y006625D02*
X010910Y006625D01*
X010910Y006723D02*
X011028Y006723D01*
X010990Y006822D02*
X010910Y006822D01*
X010910Y006920D02*
X010990Y006920D01*
X010990Y007019D02*
X010910Y007019D01*
X010910Y007117D02*
X010990Y007117D01*
X010990Y007216D02*
X010888Y007216D01*
X010810Y007314D02*
X010990Y007314D01*
X010990Y007413D02*
X010810Y007413D01*
X010860Y007511D02*
X010990Y007511D01*
X010990Y007610D02*
X010910Y007610D01*
X010910Y007708D02*
X010990Y007708D01*
X010944Y007807D02*
X010910Y007807D01*
X010590Y007807D02*
X010120Y007807D01*
X010022Y007905D02*
X010496Y007905D01*
X010590Y007708D02*
X010219Y007708D01*
X010317Y007610D02*
X010506Y007610D01*
X010490Y007511D02*
X010416Y007511D01*
X010450Y007413D02*
X010490Y007413D01*
X010490Y007314D02*
X010450Y007314D01*
X010450Y007216D02*
X010490Y007216D01*
X010450Y007117D02*
X010534Y007117D01*
X010590Y007019D02*
X010450Y007019D01*
X010450Y006920D02*
X010590Y006920D01*
X010590Y006822D02*
X010450Y006822D01*
X010450Y006723D02*
X010590Y006723D01*
X010590Y006625D02*
X010450Y006625D01*
X010450Y006526D02*
X010590Y006526D01*
X010590Y006428D02*
X010450Y006428D01*
X010450Y006329D02*
X010590Y006329D01*
X010590Y006231D02*
X010450Y006231D01*
X010450Y006132D02*
X010590Y006132D01*
X010590Y006034D02*
X010450Y006034D01*
X010450Y005935D02*
X010590Y005935D01*
X010590Y005837D02*
X010450Y005837D01*
X010450Y005738D02*
X010590Y005738D01*
X010590Y005640D02*
X010450Y005640D01*
X010450Y005541D02*
X010590Y005541D01*
X010590Y005443D02*
X010450Y005443D01*
X010450Y005344D02*
X010590Y005344D01*
X010590Y005246D02*
X010450Y005246D01*
X010450Y005147D02*
X010590Y005147D01*
X010590Y005049D02*
X010450Y005049D01*
X010450Y004950D02*
X010590Y004950D01*
X010590Y004852D02*
X010450Y004852D01*
X010450Y004753D02*
X010648Y004753D01*
X010684Y004717D02*
X010684Y004717D01*
X010746Y004655D02*
X010450Y004655D01*
X010450Y004556D02*
X010845Y004556D01*
X010943Y004458D02*
X010450Y004458D01*
X010450Y004359D02*
X011042Y004359D01*
X011140Y004261D02*
X010450Y004261D01*
X010450Y004162D02*
X011239Y004162D01*
X011337Y004064D02*
X010450Y004064D01*
X010200Y004064D02*
X007750Y004064D01*
X007750Y004162D02*
X010200Y004162D01*
X010200Y004261D02*
X007750Y004261D01*
X007750Y004359D02*
X010200Y004359D01*
X010200Y004458D02*
X007750Y004458D01*
X007750Y004556D02*
X010200Y004556D01*
X010200Y004655D02*
X007750Y004655D01*
X007750Y004753D02*
X010200Y004753D01*
X010200Y004852D02*
X007750Y004852D01*
X007750Y004950D02*
X010200Y004950D01*
X010200Y005049D02*
X007750Y005049D01*
X007750Y005147D02*
X010200Y005147D01*
X010200Y005246D02*
X007750Y005246D01*
X007750Y005344D02*
X010200Y005344D01*
X010200Y005443D02*
X007750Y005443D01*
X007750Y005541D02*
X010200Y005541D01*
X010200Y005640D02*
X007750Y005640D01*
X007750Y005738D02*
X010200Y005738D01*
X010200Y005837D02*
X007750Y005837D01*
X007750Y005935D02*
X010200Y005935D01*
X010200Y006034D02*
X007750Y006034D01*
X007750Y006132D02*
X010200Y006132D01*
X010200Y006231D02*
X007750Y006231D01*
X007750Y006329D02*
X010200Y006329D01*
X010200Y006428D02*
X007750Y006428D01*
X007750Y006526D02*
X010200Y006526D01*
X010200Y006625D02*
X007750Y006625D01*
X007750Y006723D02*
X010200Y006723D01*
X010200Y006727D02*
X007750Y006727D01*
X007750Y003377D01*
X010200Y003377D01*
X010200Y006727D01*
X011150Y006827D02*
X011300Y006677D01*
X011300Y006427D01*
X011300Y005877D01*
X011490Y006034D02*
X012617Y006034D01*
X012519Y006132D02*
X011460Y006132D01*
X011460Y006231D02*
X012420Y006231D01*
X012450Y006427D02*
X012700Y006177D01*
X012900Y006177D01*
X013100Y006377D01*
X013100Y006577D01*
X013450Y006927D01*
X013450Y008477D01*
X014050Y009077D01*
X015700Y009077D01*
X015929Y008989D02*
X016640Y008989D01*
X016640Y009087D02*
X015945Y009087D01*
X015920Y009186D02*
X016640Y009186D01*
X016640Y009284D02*
X015839Y009284D01*
X015561Y009284D02*
X013410Y009284D01*
X013410Y009186D02*
X013932Y009186D01*
X013834Y009087D02*
X013410Y009087D01*
X013410Y008989D02*
X013735Y008989D01*
X013637Y008890D02*
X013410Y008890D01*
X013410Y008792D02*
X013538Y008792D01*
X013440Y008693D02*
X013410Y008693D01*
X013695Y008496D02*
X013873Y008496D01*
X013814Y008398D02*
X013610Y008398D01*
X013610Y008299D02*
X013805Y008299D01*
X013837Y008201D02*
X013610Y008201D01*
X013794Y008595D02*
X016319Y008595D01*
X016305Y008693D02*
X013892Y008693D01*
X013991Y008792D02*
X016332Y008792D01*
X016424Y008890D02*
X015859Y008890D01*
X015541Y008890D02*
X014089Y008890D01*
X013410Y009383D02*
X016640Y009383D01*
X016640Y009481D02*
X013430Y009481D01*
X013250Y009527D02*
X013450Y009727D01*
X013649Y009580D02*
X016640Y009580D01*
X016640Y009678D02*
X013695Y009678D01*
X013695Y009777D02*
X016723Y009777D01*
X016822Y009875D02*
X013648Y009875D01*
X013252Y009875D02*
X012481Y009875D01*
X012440Y009777D02*
X013205Y009777D01*
X013175Y009678D02*
X012369Y009678D01*
X012420Y009730D02*
X012541Y010020D01*
X012541Y010335D01*
X012420Y010625D01*
X012198Y010848D01*
X011907Y010968D01*
X011593Y010968D01*
X011302Y010848D01*
X011080Y010625D01*
X010959Y010335D01*
X010959Y010020D01*
X011080Y009730D01*
X011302Y009507D01*
X011593Y009387D01*
X011907Y009387D01*
X012198Y009507D01*
X012420Y009730D01*
X012271Y009580D02*
X013090Y009580D01*
X013090Y009481D02*
X012136Y009481D01*
X012521Y009974D02*
X016920Y009974D01*
X017050Y009877D02*
X016800Y009627D01*
X016800Y007877D01*
X016500Y007577D01*
X016500Y006977D01*
X016300Y006777D01*
X015300Y006777D01*
X015357Y007019D02*
X016315Y007019D01*
X017059Y007610D02*
X017194Y007610D01*
X017685Y007216D02*
X017823Y007216D01*
X017823Y007117D02*
X017783Y007117D01*
X016640Y008299D02*
X016554Y008299D01*
X016640Y008398D02*
X014876Y008398D01*
X014375Y007511D02*
X013610Y007511D01*
X013610Y007413D02*
X014241Y007413D01*
X014205Y007314D02*
X013610Y007314D01*
X013610Y007216D02*
X013742Y007216D01*
X013761Y007235D02*
X013692Y007166D01*
X013655Y007076D01*
X013655Y006979D01*
X013692Y006889D01*
X013761Y006820D01*
X013851Y006782D01*
X013949Y006782D01*
X014039Y006820D01*
X014108Y006889D01*
X014145Y006979D01*
X014145Y007076D01*
X014108Y007166D01*
X014039Y007235D01*
X013949Y007272D01*
X013851Y007272D01*
X013761Y007235D01*
X013672Y007117D02*
X013610Y007117D01*
X013610Y007019D02*
X013655Y007019D01*
X013679Y006920D02*
X013610Y006920D01*
X013571Y006822D02*
X013759Y006822D01*
X013472Y006723D02*
X014290Y006723D01*
X014290Y006625D02*
X013374Y006625D01*
X013275Y006526D02*
X014290Y006526D01*
X014290Y006428D02*
X013260Y006428D01*
X013260Y006329D02*
X014290Y006329D01*
X014227Y006231D02*
X013180Y006231D01*
X013081Y006132D02*
X014129Y006132D01*
X014030Y006034D02*
X012983Y006034D01*
X012800Y006477D02*
X012650Y006627D01*
X011600Y006627D01*
X011350Y006877D01*
X011350Y008127D01*
X009650Y009827D01*
X009550Y010127D02*
X009750Y010127D01*
X011550Y008327D01*
X011550Y006977D01*
X011700Y006827D01*
X012800Y006827D01*
X012612Y007019D02*
X011735Y007019D01*
X011710Y007117D02*
X012560Y007117D01*
X012555Y007216D02*
X011710Y007216D01*
X011710Y007314D02*
X012592Y007314D01*
X012728Y007413D02*
X011710Y007413D01*
X011710Y007511D02*
X013090Y007511D01*
X013090Y007413D02*
X012872Y007413D01*
X013008Y007314D02*
X013082Y007314D01*
X013250Y007177D02*
X013250Y009527D01*
X013090Y009383D02*
X010721Y009383D01*
X010819Y009284D02*
X013090Y009284D01*
X013090Y009186D02*
X010918Y009186D01*
X011016Y009087D02*
X013090Y009087D01*
X013090Y008989D02*
X011115Y008989D01*
X011213Y008890D02*
X013090Y008890D01*
X013090Y008792D02*
X012072Y008792D01*
X012089Y008785D02*
X011999Y008822D01*
X011901Y008822D01*
X011811Y008785D01*
X011742Y008716D01*
X011705Y008626D01*
X011705Y008529D01*
X011742Y008439D01*
X011811Y008370D01*
X011901Y008332D01*
X011999Y008332D01*
X012089Y008370D01*
X012158Y008439D01*
X012195Y008529D01*
X012195Y008626D01*
X012158Y008716D01*
X012089Y008785D01*
X012167Y008693D02*
X012781Y008693D01*
X012683Y008595D02*
X012195Y008595D01*
X012182Y008496D02*
X012655Y008496D01*
X012668Y008398D02*
X012117Y008398D01*
X011783Y008398D02*
X011706Y008398D01*
X011710Y008299D02*
X012732Y008299D01*
X013068Y008299D02*
X013090Y008299D01*
X013090Y008201D02*
X011710Y008201D01*
X011710Y008102D02*
X013090Y008102D01*
X013090Y008004D02*
X011710Y008004D01*
X011710Y007905D02*
X013090Y007905D01*
X013090Y007807D02*
X011710Y007807D01*
X011710Y007708D02*
X013090Y007708D01*
X013090Y007610D02*
X011710Y007610D01*
X011150Y007827D02*
X009500Y009477D01*
X006450Y009477D01*
X005100Y010827D01*
X004917Y010663D02*
X000900Y010663D01*
X000900Y010565D02*
X005136Y010565D01*
X005235Y010466D02*
X000900Y010466D01*
X000900Y010368D02*
X001084Y010368D01*
X000919Y010269D02*
X000900Y010269D01*
X001316Y010368D02*
X005333Y010368D01*
X005432Y010269D02*
X001481Y010269D01*
X001559Y010171D02*
X005530Y010171D01*
X005629Y010072D02*
X001599Y010072D01*
X001605Y009974D02*
X005727Y009974D01*
X005826Y009875D02*
X001596Y009875D01*
X001556Y009777D02*
X005924Y009777D01*
X006023Y009678D02*
X001474Y009678D01*
X001437Y009580D02*
X006121Y009580D01*
X006220Y009481D02*
X001482Y009481D01*
X000944Y008693D02*
X000900Y008693D01*
X002450Y006727D02*
X004850Y006727D01*
X004850Y003377D01*
X002450Y003377D01*
X002450Y006727D01*
X002450Y006723D02*
X004850Y006723D01*
X004850Y006625D02*
X002450Y006625D01*
X002450Y006526D02*
X004850Y006526D01*
X004850Y006428D02*
X002450Y006428D01*
X002450Y006329D02*
X004850Y006329D01*
X004850Y006231D02*
X002450Y006231D01*
X002450Y006132D02*
X004850Y006132D01*
X004850Y006034D02*
X002450Y006034D01*
X002450Y005935D02*
X004850Y005935D01*
X004850Y005837D02*
X002450Y005837D01*
X002450Y005738D02*
X004850Y005738D01*
X004850Y005640D02*
X002450Y005640D01*
X002450Y005541D02*
X004850Y005541D01*
X004850Y005443D02*
X002450Y005443D01*
X002450Y005344D02*
X004850Y005344D01*
X004850Y005246D02*
X002450Y005246D01*
X002450Y005147D02*
X004850Y005147D01*
X004850Y005049D02*
X002450Y005049D01*
X002450Y004950D02*
X004850Y004950D01*
X004850Y004852D02*
X002450Y004852D01*
X002450Y004753D02*
X004850Y004753D01*
X004850Y004655D02*
X002450Y004655D01*
X002450Y004556D02*
X004850Y004556D01*
X004850Y004458D02*
X002450Y004458D01*
X002450Y004359D02*
X004850Y004359D01*
X004850Y004261D02*
X002450Y004261D01*
X002450Y004162D02*
X004850Y004162D01*
X004850Y004064D02*
X002450Y004064D01*
X002450Y003965D02*
X004850Y003965D01*
X004850Y003867D02*
X002450Y003867D01*
X002450Y003768D02*
X004850Y003768D01*
X004850Y003670D02*
X002450Y003670D01*
X002450Y003571D02*
X004850Y003571D01*
X004850Y003473D02*
X002450Y003473D01*
X005050Y003473D02*
X007550Y003473D01*
X007550Y003377D02*
X005050Y003377D01*
X005050Y006727D01*
X007550Y006727D01*
X007550Y003377D01*
X007750Y003473D02*
X010200Y003473D01*
X010200Y003571D02*
X007750Y003571D01*
X007750Y003670D02*
X010200Y003670D01*
X010200Y003768D02*
X007750Y003768D01*
X007750Y003867D02*
X010200Y003867D01*
X010200Y003965D02*
X007750Y003965D01*
X007550Y003965D02*
X005050Y003965D01*
X005050Y003867D02*
X007550Y003867D01*
X007550Y003768D02*
X005050Y003768D01*
X005050Y003670D02*
X007550Y003670D01*
X007550Y003571D02*
X005050Y003571D01*
X005050Y004064D02*
X007550Y004064D01*
X007550Y004162D02*
X005050Y004162D01*
X005050Y004261D02*
X007550Y004261D01*
X007550Y004359D02*
X005050Y004359D01*
X005050Y004458D02*
X007550Y004458D01*
X007550Y004556D02*
X005050Y004556D01*
X005050Y004655D02*
X007550Y004655D01*
X007550Y004753D02*
X005050Y004753D01*
X005050Y004852D02*
X007550Y004852D01*
X007550Y004950D02*
X005050Y004950D01*
X005050Y005049D02*
X007550Y005049D01*
X007550Y005147D02*
X005050Y005147D01*
X005050Y005246D02*
X007550Y005246D01*
X007550Y005344D02*
X005050Y005344D01*
X005050Y005443D02*
X007550Y005443D01*
X007550Y005541D02*
X005050Y005541D01*
X005050Y005640D02*
X007550Y005640D01*
X007550Y005738D02*
X005050Y005738D01*
X005050Y005837D02*
X007550Y005837D01*
X007550Y005935D02*
X005050Y005935D01*
X005050Y006034D02*
X007550Y006034D01*
X007550Y006132D02*
X005050Y006132D01*
X005050Y006231D02*
X007550Y006231D01*
X007550Y006329D02*
X005050Y006329D01*
X005050Y006428D02*
X007550Y006428D01*
X007550Y006526D02*
X005050Y006526D01*
X005050Y006625D02*
X007550Y006625D01*
X007550Y006723D02*
X005050Y006723D01*
X006475Y009678D02*
X007555Y009678D01*
X007555Y009777D02*
X006377Y009777D01*
X006278Y009875D02*
X007602Y009875D01*
X007800Y009727D02*
X009150Y009727D01*
X009550Y010127D01*
X009466Y010269D02*
X005884Y010269D01*
X005983Y010171D02*
X009367Y010171D01*
X009269Y010072D02*
X006081Y010072D01*
X006180Y009974D02*
X009170Y009974D01*
X009834Y010269D02*
X010959Y010269D01*
X010959Y010171D02*
X009933Y010171D01*
X010031Y010072D02*
X010959Y010072D01*
X010979Y009974D02*
X010130Y009974D01*
X010228Y009875D02*
X011019Y009875D01*
X011060Y009777D02*
X010327Y009777D01*
X010425Y009678D02*
X011131Y009678D01*
X011229Y009580D02*
X010524Y009580D01*
X010622Y009481D02*
X011364Y009481D01*
X011312Y008792D02*
X011828Y008792D01*
X011733Y008693D02*
X011410Y008693D01*
X011509Y008595D02*
X011705Y008595D01*
X011718Y008496D02*
X011607Y008496D01*
X011150Y007827D02*
X011150Y006827D01*
X011300Y006427D02*
X012450Y006427D01*
X013150Y007077D02*
X013250Y007177D01*
X014058Y007216D02*
X014210Y007216D01*
X014264Y007117D02*
X014128Y007117D01*
X014145Y007019D02*
X014290Y007019D01*
X014290Y006920D02*
X014121Y006920D01*
X014041Y006822D02*
X014290Y006822D01*
X014610Y006526D02*
X015076Y006526D01*
X015055Y006428D02*
X014610Y006428D01*
X014610Y006329D02*
X015075Y006329D01*
X015077Y006231D02*
X014610Y006231D01*
X014550Y006027D02*
X013750Y005227D01*
X013750Y004977D01*
X014054Y004655D02*
X015286Y004655D01*
X015255Y004753D02*
X014449Y004753D01*
X014563Y004852D02*
X015266Y004852D01*
X014251Y004753D02*
X014152Y004753D01*
X013240Y005049D02*
X012968Y005049D01*
X013833Y005837D02*
X011545Y005837D01*
X011541Y005935D02*
X013932Y005935D01*
X011855Y004753D02*
X011100Y004753D01*
X011199Y004655D02*
X011738Y004655D01*
X011705Y004556D02*
X011297Y004556D01*
X011396Y004458D02*
X011714Y004458D01*
X011772Y004359D02*
X011494Y004359D01*
X012300Y004177D02*
X012700Y003777D01*
X013019Y008693D02*
X013090Y008693D01*
X012541Y010072D02*
X017199Y010072D01*
X017501Y010072D02*
X017823Y010072D01*
X017823Y009974D02*
X017575Y009974D01*
X017595Y009875D02*
X017823Y009875D01*
X017823Y009777D02*
X017574Y009777D01*
X017497Y009678D02*
X017823Y009678D01*
X017823Y009580D02*
X017393Y009580D01*
X017395Y009481D02*
X017823Y009481D01*
X017823Y009383D02*
X017352Y009383D01*
X017350Y009877D02*
X017050Y009877D01*
X017823Y010171D02*
X012541Y010171D01*
X012541Y010269D02*
X017823Y010269D01*
X017823Y010368D02*
X012527Y010368D01*
X012486Y010466D02*
X017823Y010466D01*
X017823Y010565D02*
X012445Y010565D01*
X012382Y010663D02*
X017823Y010663D01*
X017823Y010762D02*
X012283Y010762D01*
X012167Y010860D02*
X017823Y010860D01*
X017823Y010959D02*
X011929Y010959D01*
X011571Y010959D02*
X005311Y010959D01*
X005345Y010860D02*
X011333Y010860D01*
X011217Y010762D02*
X005392Y010762D01*
X005490Y010663D02*
X011118Y010663D01*
X011055Y010565D02*
X005589Y010565D01*
X005687Y010466D02*
X011014Y010466D01*
X010973Y010368D02*
X005786Y010368D01*
X005185Y011057D02*
X017823Y011057D01*
X017823Y011156D02*
X000900Y011156D01*
X000900Y011057D02*
X005015Y011057D01*
X004889Y010959D02*
X000900Y010959D01*
X000900Y010860D02*
X004855Y010860D01*
X004862Y010762D02*
X000900Y010762D01*
D13*
X002100Y008827D03*
X005000Y008827D03*
X007450Y009877D03*
X007800Y009727D03*
X007700Y008677D03*
X009650Y009827D03*
X010650Y010677D03*
X012700Y010827D03*
X013450Y009727D03*
X014550Y009477D03*
X015700Y009077D03*
X016550Y008677D03*
X016450Y008077D03*
X015250Y007427D03*
X014850Y007477D03*
X014450Y007277D03*
X013900Y007027D03*
X013150Y007077D03*
X012800Y007177D03*
X012800Y006827D03*
X012800Y006477D03*
X013800Y006227D03*
X012800Y005227D03*
X012350Y005227D03*
X011950Y004527D03*
X012250Y003777D03*
X012700Y003777D03*
X013200Y004627D03*
X013750Y004977D03*
X014350Y004977D03*
X015500Y004777D03*
X016350Y004827D03*
X016850Y005077D03*
X017700Y005277D03*
X016600Y006577D03*
X015300Y006427D03*
X015300Y006777D03*
X014700Y007827D03*
X014700Y008227D03*
X014050Y008327D03*
X012900Y008477D03*
X012400Y008877D03*
X011950Y008577D03*
X010900Y007377D03*
X011300Y005877D03*
X014650Y003877D03*
X017150Y009527D03*
X017350Y009877D03*
X017700Y009827D03*
X005100Y010827D03*
D14*
X008500Y007527D03*
X008950Y007527D03*
X009400Y007527D03*
X009600Y007127D03*
X009150Y007127D03*
X008700Y007127D03*
X009850Y007527D03*
X010050Y007127D03*
D15*
X002050Y007427D03*
X002050Y008127D03*
D16*
X001050Y006027D03*
M02*
