G75*
G70*
%OFA0B0*%
%FSLAX24Y24*%
%IPPOS*%
%LPD*%
%AMOC8*
5,1,8,0,0,1.08239X$1,22.5*
%
%ADD10C,0.0000*%
%ADD11C,0.0060*%
%ADD12C,0.0100*%
%ADD13C,0.0110*%
D10*
X000700Y003177D02*
X000700Y011445D01*
X018023Y011445D01*
X018023Y003177D01*
X000700Y003177D01*
D11*
X013401Y003696D02*
X013401Y003648D01*
X013401Y003551D02*
X013401Y003357D01*
X013449Y003357D02*
X013352Y003357D01*
X013223Y003357D02*
X013223Y003648D01*
X013127Y003551D01*
X013030Y003648D01*
X013030Y003357D01*
X013352Y003551D02*
X013401Y003551D01*
X013567Y003648D02*
X013567Y003357D01*
X013567Y003454D02*
X013712Y003551D01*
X013836Y003551D02*
X013836Y003357D01*
X013836Y003454D02*
X013932Y003551D01*
X013981Y003551D01*
X014104Y003503D02*
X014104Y003406D01*
X014153Y003357D01*
X014249Y003357D01*
X014298Y003406D01*
X014298Y003503D01*
X014249Y003551D01*
X014153Y003551D01*
X014104Y003503D01*
X014427Y003454D02*
X014620Y003648D01*
X014427Y003648D02*
X014427Y003357D01*
X014475Y003503D02*
X014620Y003357D01*
X014749Y003406D02*
X014797Y003357D01*
X014894Y003357D01*
X014942Y003406D01*
X014942Y003503D01*
X014894Y003551D01*
X014797Y003551D01*
X014749Y003503D01*
X014749Y003406D01*
X015071Y003357D02*
X015216Y003357D01*
X015265Y003406D01*
X015265Y003503D01*
X015216Y003551D01*
X015071Y003551D01*
X015071Y003261D01*
X015442Y003406D02*
X015442Y003599D01*
X015490Y003551D02*
X015393Y003551D01*
X015442Y003406D02*
X015490Y003357D01*
X015608Y003406D02*
X015608Y003503D01*
X015657Y003551D01*
X015753Y003551D01*
X015802Y003503D01*
X015802Y003454D01*
X015608Y003454D01*
X015608Y003406D02*
X015657Y003357D01*
X015753Y003357D01*
X015930Y003357D02*
X015930Y003551D01*
X015930Y003454D02*
X016027Y003551D01*
X016076Y003551D01*
X016199Y003406D02*
X016247Y003406D01*
X016247Y003357D01*
X016199Y003357D01*
X016199Y003406D01*
X016360Y003406D02*
X016360Y003503D01*
X016409Y003551D01*
X016554Y003551D01*
X016554Y003648D02*
X016554Y003357D01*
X016409Y003357D01*
X016360Y003406D01*
X016682Y003406D02*
X016731Y003357D01*
X016828Y003357D01*
X016876Y003454D02*
X016682Y003454D01*
X016682Y003406D02*
X016682Y003503D01*
X016731Y003551D01*
X016828Y003551D01*
X016876Y003503D01*
X016876Y003454D01*
X013712Y003357D02*
X013567Y003454D01*
D12*
X010550Y003427D02*
X010550Y003828D01*
X010350Y004028D01*
X010150Y003828D01*
X010150Y003427D01*
X010150Y003728D02*
X010550Y003728D01*
X007750Y003828D02*
X007650Y003728D01*
X007350Y003728D01*
X007350Y004028D02*
X007350Y003427D01*
X007650Y003427D01*
X007750Y003528D01*
X007750Y003628D01*
X007650Y003728D01*
X007750Y003828D02*
X007750Y003928D01*
X007650Y004028D01*
X007350Y004028D01*
X004950Y003928D02*
X004850Y004028D01*
X004650Y004028D01*
X004550Y003928D01*
X004550Y003528D01*
X004650Y003427D01*
X004850Y003427D01*
X004950Y003528D01*
D13*
X002182Y005453D02*
X001755Y005453D01*
X001969Y005666D02*
X001969Y005239D01*
X003150Y010732D02*
X003150Y011126D01*
X012455Y010893D02*
X012685Y011123D01*
X012685Y010432D01*
X012455Y010432D02*
X012915Y010432D01*
X016505Y008125D02*
X016505Y007731D01*
X016603Y007632D01*
X016800Y007632D01*
X016899Y007731D01*
X016899Y008125D02*
X016800Y008223D01*
X016603Y008223D01*
X016505Y008125D01*
X016505Y007223D02*
X016800Y007223D01*
X016899Y007125D01*
X016899Y006731D01*
X016800Y006632D01*
X016505Y006632D01*
X016505Y007223D01*
M02*
